<svg xmlns="http://www.w3.org/2000/svg" xmlns:xlink="http://www.w3.org/1999/xlink" width="5528pt" height="2603pt" viewBox="0.00 0.00 5528.00 2603.00">
<g id="graph0" class="graph" transform="scale(1 1) rotate(0) translate(93.6 2509.6)">
<polygon fill="white" stroke="none" points="-93.6,93.6 -93.6,-2509.6 5434.14,-2509.6 5434.14,93.6 -93.6,93.6"/>
<!-- _ccQ00ErrEfGPZ4HxkcnG6Q -->
<g id="node1" class="node">
<title>_ccQ00ErrEfGPZ4HxkcnG6Q</title>
<ellipse fill="none" stroke="black" cx="74.14" cy="-1562" rx="46.8" ry="46.8"/>
<text xml:space="preserve" text-anchor="middle" x="74.14" y="-1557.8" font-family="Times,serif" font-size="14.00">postgis + postgres</text>
<text xml:space="preserve" text-anchor="middle" x="13.67" y="-1502.6" font-family="Times,serif" font-size="14.00">M=1</text>
</g>
<!-- _ccSqBkrrEfGPZ4HxkcnG6Q -->
<g id="node31" class="node">
<title>_ccSqBkrrEfGPZ4HxkcnG6Q</title>
<polygon fill="black" stroke="black" points="229.34,-1703.8 214.94,-1703.8 214.94,-1610.2 229.34,-1610.2 229.34,-1703.8"/>
</g>
<!-- _ccQ00ErrEfGPZ4HxkcnG6Q&#45;&gt;_ccSqBkrrEfGPZ4HxkcnG6Q -->
<g id="edge64" class="edge">
<title>_ccQ00ErrEfGPZ4HxkcnG6Q-&gt;_ccSqBkrrEfGPZ4HxkcnG6Q</title>
<path fill="none" stroke="black" d="M113.89,-1587.21C143.66,-1606.58 183.27,-1632.36 205.06,-1646.54"/>
<polygon fill="black" stroke="black" points="202.89,-1649.3 213.18,-1651.82 206.71,-1643.43 202.89,-1649.3"/>
</g>
<!-- _ccSqAUrrEfGPZ4HxkcnG6Q -->
<g id="node49" class="node">
<title>_ccSqAUrrEfGPZ4HxkcnG6Q</title>
<polygon fill="black" stroke="black" points="3860.54,-710.8 3846.14,-710.8 3846.14,-617.2 3860.54,-617.2 3860.54,-710.8"/>
</g>
<!-- _ccQ00ErrEfGPZ4HxkcnG6Q&#45;&gt;_ccSqAUrrEfGPZ4HxkcnG6Q -->
<g id="edge53" class="edge">
<title>_ccQ00ErrEfGPZ4HxkcnG6Q-&gt;_ccSqAUrrEfGPZ4HxkcnG6Q</title>
<path fill="none" stroke="black" d="M76.54,-1514.93C84.32,-1295.1 130.99,-380 369.14,-380 369.14,-380 369.14,-380 3262.34,-380 3514.85,-380 3773.34,-593.8 3837.34,-650.39"/>
<polygon fill="black" stroke="black" points="3835,-652.99 3844.79,-657.06 3839.67,-647.78 3835,-652.99"/>
</g>
<!-- _ccQNwErrEfGPZ4HxkcnG6Q -->
<g id="node2" class="node">
<title>_ccQNwErrEfGPZ4HxkcnG6Q</title>
<ellipse fill="none" stroke="black" cx="3113.34" cy="-1138" rx="46.8" ry="46.8"/>
<text xml:space="preserve" text-anchor="middle" x="3113.34" y="-1133.8" font-family="Times,serif" font-size="14.00">Express.js</text>
<text xml:space="preserve" text-anchor="middle" x="3052.87" y="-1078.6" font-family="Times,serif" font-size="14.00">M=4</text>
</g>
<!-- _ccRb4UrrEfGPZ4HxkcnG6Q -->
<g id="node38" class="node">
<title>_ccRb4UrrEfGPZ4HxkcnG6Q</title>
<polygon fill="black" stroke="black" points="2084.54,-1703.8 2070.14,-1703.8 2070.14,-1610.2 2084.54,-1610.2 2084.54,-1703.8"/>
</g>
<!-- _ccQNwErrEfGPZ4HxkcnG6Q&#45;&gt;_ccRb4UrrEfGPZ4HxkcnG6Q -->
<g id="edge76" class="edge">
<title>_ccQNwErrEfGPZ4HxkcnG6Q-&gt;_ccRb4UrrEfGPZ4HxkcnG6Q</title>
<path fill="none" stroke="black" d="M3067.87,-1149.94C3036.74,-1158.76 2994.39,-1171.69 2958.14,-1186 2600.17,-1327.36 2495.77,-1345.06 2178.54,-1563 2144.6,-1586.32 2110.86,-1620.94 2092.5,-1641.01"/>
<polygon fill="black" stroke="black" points="2090.09,-1638.45 2086,-1648.23 2095.29,-1643.14 2090.09,-1638.45"/>
</g>
<!-- _ccSC&#45;UrrEfGPZ4HxkcnG6Q -->
<g id="node45" class="node">
<title>_ccSC-UrrEfGPZ4HxkcnG6Q</title>
<polygon fill="black" stroke="black" points="3268.54,-805.8 3254.14,-805.8 3254.14,-712.2 3268.54,-712.2 3268.54,-805.8"/>
</g>
<!-- _ccQNwErrEfGPZ4HxkcnG6Q&#45;&gt;_ccSC&#45;UrrEfGPZ4HxkcnG6Q -->
<g id="edge58" class="edge">
<title>_ccQNwErrEfGPZ4HxkcnG6Q-&gt;_ccSC-UrrEfGPZ4HxkcnG6Q</title>
<path fill="none" stroke="black" d="M3131.09,-1094.52C3161.4,-1015.84 3224.55,-851.91 3249.69,-786.66"/>
<polygon fill="black" stroke="black" points="3252.92,-788.02 3253.24,-777.43 3246.38,-785.5 3252.92,-788.02"/>
</g>
<!-- _ccSC9ErrEfGPZ4HxkcnG6Q -->
<g id="node48" class="node">
<title>_ccSC9ErrEfGPZ4HxkcnG6Q</title>
<polygon fill="black" stroke="black" points="3268.54,-993.8 3254.14,-993.8 3254.14,-900.2 3268.54,-900.2 3268.54,-993.8"/>
</g>
<!-- _ccQNwErrEfGPZ4HxkcnG6Q&#45;&gt;_ccSC9ErrEfGPZ4HxkcnG6Q -->
<g id="edge27" class="edge">
<title>_ccQNwErrEfGPZ4HxkcnG6Q-&gt;_ccSC9ErrEfGPZ4HxkcnG6Q</title>
<path fill="none" stroke="black" d="M3142.49,-1101.17C3173.9,-1060.09 3223.38,-995.36 3246.97,-964.49"/>
<polygon fill="black" stroke="black" points="3249.46,-967.01 3252.75,-956.94 3243.89,-962.76 3249.46,-967.01"/>
</g>
<!-- _ccSC80rrEfGPZ4HxkcnG6Q -->
<g id="node3" class="node">
<title>_ccSC80rrEfGPZ4HxkcnG6Q</title>
<ellipse fill="none" stroke="black" cx="1445.74" cy="-995" rx="46.8" ry="46.8"/>
</g>
<!-- _ccSC80rrEfGPZ4HxkcnG6Q&#45;&gt;_ccSC9ErrEfGPZ4HxkcnG6Q -->
<g id="edge34" class="edge">
<title>_ccSC80rrEfGPZ4HxkcnG6Q-&gt;_ccSC9ErrEfGPZ4HxkcnG6Q</title>
<path fill="none" stroke="black" d="M1488.57,-974.97C1550.72,-947.1 1671.8,-900 1780.34,-900 1780.34,-900 1780.34,-900 2818.34,-900 2984.43,-900 3183.66,-933.22 3242.91,-943.8"/>
<polygon fill="black" stroke="black" points="3241.93,-947.18 3252.39,-945.52 3243.18,-940.29 3241.93,-947.18"/>
</g>
<!-- _ccCyYUrrEfGPZ4HxkcnG6Q -->
<g id="node4" class="node">
<title>_ccCyYUrrEfGPZ4HxkcnG6Q</title>
<ellipse fill="none" stroke="black" cx="2817.34" cy="-1657" rx="46.8" ry="46.8"/>
<text xml:space="preserve" text-anchor="middle" x="2817.34" y="-1652.8" font-family="Times,serif" font-size="14.00">Comprobar_Disponibilidad</text>
</g>
<!-- _ccCyYkrrEfGPZ4HxkcnG6Q -->
<g id="node54" class="node">
<title>_ccCyYkrrEfGPZ4HxkcnG6Q</title>
<polygon fill="none" stroke="black" points="2972.54,-1561.8 2958.14,-1561.8 2958.14,-1468.2 2972.54,-1468.2 2972.54,-1561.8"/>
<text xml:space="preserve" text-anchor="middle" x="2922.5" y="-1455.6" font-family="Times,serif" font-size="14.00">t=33.333332</text>
<text xml:space="preserve" text-anchor="middle" x="2922.5" y="-1438.8" font-family="Times,serif" font-size="14.00">infServ</text>
</g>
<!-- _ccCyYUrrEfGPZ4HxkcnG6Q&#45;&gt;_ccCyYkrrEfGPZ4HxkcnG6Q -->
<g id="edge3" class="edge">
<title>_ccCyYUrrEfGPZ4HxkcnG6Q-&gt;_ccCyYkrrEfGPZ4HxkcnG6Q</title>
<path fill="none" stroke="black" d="M2851.47,-1624.78C2882.38,-1594.72 2927.05,-1551.27 2949.81,-1529.13"/>
<polygon fill="black" stroke="black" points="2952.07,-1531.82 2956.8,-1522.34 2947.19,-1526.8 2952.07,-1531.82"/>
</g>
<!-- _cb_IAUrrEfGPZ4HxkcnG6Q -->
<g id="node5" class="node">
<title>_cb_IAUrrEfGPZ4HxkcnG6Q</title>
<ellipse fill="none" stroke="black" cx="4001.34" cy="-1515" rx="46.8" ry="46.8"/>
<text xml:space="preserve" text-anchor="middle" x="4001.34" y="-1510.8" font-family="Times,serif" font-size="14.00">Valido</text>
</g>
<!-- _cb_IAkrrEfGPZ4HxkcnG6Q -->
<g id="node32" class="node">
<title>_cb_IAkrrEfGPZ4HxkcnG6Q</title>
<polygon fill="black" stroke="black" points="4156.54,-1750.8 4142.14,-1750.8 4142.14,-1657.2 4156.54,-1657.2 4156.54,-1750.8"/>
</g>
<!-- _cb_IAUrrEfGPZ4HxkcnG6Q&#45;&gt;_cb_IAkrrEfGPZ4HxkcnG6Q -->
<g id="edge51" class="edge">
<title>_cb_IAUrrEfGPZ4HxkcnG6Q-&gt;_cb_IAkrrEfGPZ4HxkcnG6Q</title>
<path fill="none" stroke="black" d="M4030.84,-1551.89C4062.15,-1592.43 4111.14,-1655.83 4134.73,-1686.38"/>
<polygon fill="black" stroke="black" points="4131.89,-1688.43 4140.78,-1694.2 4137.43,-1684.15 4131.89,-1688.43"/>
</g>
<!-- _cb4aUkrrEfGPZ4HxkcnG6Q -->
<g id="node6" class="node">
<title>_cb4aUkrrEfGPZ4HxkcnG6Q</title>
<ellipse fill="none" stroke="black" cx="2225.34" cy="-1657" rx="46.8" ry="46.8"/>
<text xml:space="preserve" text-anchor="middle" x="2225.34" y="-1652.8" font-family="Times,serif" font-size="14.00">Comprobar_Policies</text>
</g>
<!-- _cb4aU0rrEfGPZ4HxkcnG6Q -->
<g id="node52" class="node">
<title>_cb4aU0rrEfGPZ4HxkcnG6Q</title>
<polygon fill="none" stroke="black" points="2380.54,-1703.8 2366.14,-1703.8 2366.14,-1610.2 2380.54,-1610.2 2380.54,-1703.8"/>
<text xml:space="preserve" text-anchor="middle" x="2330.5" y="-1597.6" font-family="Times,serif" font-size="14.00">t=16.666666</text>
<text xml:space="preserve" text-anchor="middle" x="2330.5" y="-1580.8" font-family="Times,serif" font-size="14.00">infServ</text>
</g>
<!-- _cb4aUkrrEfGPZ4HxkcnG6Q&#45;&gt;_cb4aU0rrEfGPZ4HxkcnG6Q -->
<g id="edge49" class="edge">
<title>_cb4aUkrrEfGPZ4HxkcnG6Q-&gt;_cb4aU0rrEfGPZ4HxkcnG6Q</title>
<path fill="none" stroke="black" d="M2272.54,-1657C2300.37,-1657 2334.23,-1657 2354.49,-1657"/>
<polygon fill="black" stroke="black" points="2354.37,-1660.5 2364.37,-1657 2354.37,-1653.5 2354.37,-1660.5"/>
</g>
<!-- _ccSC&#45;ErrEfGPZ4HxkcnG6Q -->
<g id="node7" class="node">
<title>_ccSC-ErrEfGPZ4HxkcnG6Q</title>
<ellipse fill="none" stroke="black" cx="3113.34" cy="-759" rx="46.8" ry="46.8"/>
</g>
<!-- _ccSC&#45;ErrEfGPZ4HxkcnG6Q&#45;&gt;_ccSC&#45;UrrEfGPZ4HxkcnG6Q -->
<g id="edge33" class="edge">
<title>_ccSC-ErrEfGPZ4HxkcnG6Q-&gt;_ccSC-UrrEfGPZ4HxkcnG6Q</title>
<path fill="none" stroke="black" d="M3160.54,-759C3188.37,-759 3222.23,-759 3242.49,-759"/>
<polygon fill="black" stroke="black" points="3242.37,-762.5 3252.37,-759 3242.37,-755.5 3242.37,-762.5"/>
</g>
<!-- _ccGcwErrEfGPZ4HxkcnG6Q -->
<g id="node8" class="node">
<title>_ccGcwErrEfGPZ4HxkcnG6Q</title>
<ellipse fill="none" stroke="black" cx="962.14" cy="-1846" rx="46.8" ry="46.8"/>
<text xml:space="preserve" text-anchor="middle" x="962.14" y="-1841.8" font-family="Times,serif" font-size="14.00">No_Disponible</text>
</g>
<!-- _ccGcwUrrEfGPZ4HxkcnG6Q -->
<g id="node43" class="node">
<title>_ccGcwUrrEfGPZ4HxkcnG6Q</title>
<polygon fill="black" stroke="black" points="1117.34,-1892.8 1102.94,-1892.8 1102.94,-1799.2 1117.34,-1799.2 1117.34,-1892.8"/>
</g>
<!-- _ccGcwErrEfGPZ4HxkcnG6Q&#45;&gt;_ccGcwUrrEfGPZ4HxkcnG6Q -->
<g id="edge23" class="edge">
<title>_ccGcwErrEfGPZ4HxkcnG6Q-&gt;_ccGcwUrrEfGPZ4HxkcnG6Q</title>
<path fill="none" stroke="black" d="M1009.34,-1846C1037.17,-1846 1071.03,-1846 1091.29,-1846"/>
<polygon fill="black" stroke="black" points="1091.17,-1849.5 1101.17,-1846 1091.17,-1842.5 1091.17,-1849.5"/>
</g>
<!-- _cb62kErrEfGPZ4HxkcnG6Q -->
<g id="node9" class="node">
<title>_cb62kErrEfGPZ4HxkcnG6Q</title>
<ellipse fill="none" stroke="black" cx="370.14" cy="-1657" rx="46.8" ry="46.8"/>
<text xml:space="preserve" text-anchor="middle" x="370.14" y="-1652.8" font-family="Times,serif" font-size="14.00">Consultar_BD</text>
</g>
<!-- _cb62kUrrEfGPZ4HxkcnG6Q -->
<g id="node51" class="node">
<title>_cb62kUrrEfGPZ4HxkcnG6Q</title>
<polygon fill="none" stroke="black" points="525.34,-1703.8 510.94,-1703.8 510.94,-1610.2 525.34,-1610.2 525.34,-1703.8"/>
<text xml:space="preserve" text-anchor="middle" x="490.34" y="-1597.6" font-family="Times,serif" font-size="14.00">t=12.5</text>
<text xml:space="preserve" text-anchor="middle" x="490.34" y="-1580.8" font-family="Times,serif" font-size="14.00">infServ</text>
</g>
<!-- _cb62kErrEfGPZ4HxkcnG6Q&#45;&gt;_cb62kUrrEfGPZ4HxkcnG6Q -->
<g id="edge1" class="edge">
<title>_cb62kErrEfGPZ4HxkcnG6Q-&gt;_cb62kUrrEfGPZ4HxkcnG6Q</title>
<path fill="none" stroke="black" d="M417.34,-1657C445.17,-1657 479.03,-1657 499.29,-1657"/>
<polygon fill="black" stroke="black" points="499.17,-1660.5 509.17,-1657 499.17,-1653.5 499.17,-1660.5"/>
</g>
<!-- _cb0I4UrrEfGPZ4HxkcnG6Q -->
<g id="node10" class="node">
<title>_cb0I4UrrEfGPZ4HxkcnG6Q</title>
<ellipse fill="none" stroke="black" cx="4001.34" cy="-664" rx="46.8" ry="46.8"/>
<text xml:space="preserve" text-anchor="middle" x="4001.34" y="-659.8" font-family="Times,serif" font-size="14.00">Insertar_Reserva_BD</text>
</g>
<!-- _cb0I4krrEfGPZ4HxkcnG6Q -->
<g id="node55" class="node">
<title>_cb0I4krrEfGPZ4HxkcnG6Q</title>
<polygon fill="none" stroke="black" points="4156.54,-710.8 4142.14,-710.8 4142.14,-617.2 4156.54,-617.2 4156.54,-710.8"/>
<text xml:space="preserve" text-anchor="middle" x="4121.54" y="-604.6" font-family="Times,serif" font-size="14.00">t=10.0</text>
<text xml:space="preserve" text-anchor="middle" x="4121.54" y="-587.8" font-family="Times,serif" font-size="14.00">infServ</text>
</g>
<!-- _cb0I4UrrEfGPZ4HxkcnG6Q&#45;&gt;_cb0I4krrEfGPZ4HxkcnG6Q -->
<g id="edge29" class="edge">
<title>_cb0I4UrrEfGPZ4HxkcnG6Q-&gt;_cb0I4krrEfGPZ4HxkcnG6Q</title>
<path fill="none" stroke="black" d="M4048.54,-664C4076.37,-664 4110.23,-664 4130.49,-664"/>
<polygon fill="black" stroke="black" points="4130.37,-667.5 4140.37,-664 4130.37,-660.5 4130.37,-667.5"/>
</g>
<!-- _cb6PgErrEfGPZ4HxkcnG6Q -->
<g id="node11" class="node">
<title>_cb6PgErrEfGPZ4HxkcnG6Q</title>
<ellipse fill="none" stroke="black" cx="2817.34" cy="-1469" rx="46.8" ry="46.8"/>
<text xml:space="preserve" text-anchor="middle" x="2817.34" y="-1464.8" font-family="Times,serif" font-size="14.00">No_Cumple_Politicas</text>
</g>
<!-- _cb6PgUrrEfGPZ4HxkcnG6Q -->
<g id="node35" class="node">
<title>_cb6PgUrrEfGPZ4HxkcnG6Q</title>
<polygon fill="black" stroke="black" points="2972.54,-1326.8 2958.14,-1326.8 2958.14,-1233.2 2972.54,-1233.2 2972.54,-1326.8"/>
</g>
<!-- _cb6PgErrEfGPZ4HxkcnG6Q&#45;&gt;_cb6PgUrrEfGPZ4HxkcnG6Q -->
<g id="edge65" class="edge">
<title>_cb6PgErrEfGPZ4HxkcnG6Q-&gt;_cb6PgUrrEfGPZ4HxkcnG6Q</title>
<path fill="none" stroke="black" d="M2846.84,-1432.11C2878.15,-1391.57 2927.14,-1328.17 2950.73,-1297.62"/>
<polygon fill="black" stroke="black" points="2953.43,-1299.85 2956.78,-1289.8 2947.89,-1295.57 2953.43,-1299.85"/>
</g>
<!-- _cb5odErrEfGPZ4HxkcnG6Q -->
<g id="node12" class="node">
<title>_cb5odErrEfGPZ4HxkcnG6Q</title>
<ellipse fill="none" stroke="black" cx="4001.34" cy="-1089" rx="46.8" ry="46.8"/>
<text xml:space="preserve" text-anchor="middle" x="4001.34" y="-1084.8" font-family="Times,serif" font-size="14.00">Inv_Cred</text>
</g>
<!-- _cb5odUrrEfGPZ4HxkcnG6Q -->
<g id="node42" class="node">
<title>_cb5odUrrEfGPZ4HxkcnG6Q</title>
<polygon fill="black" stroke="black" points="4156.54,-1135.8 4142.14,-1135.8 4142.14,-1042.2 4156.54,-1042.2 4156.54,-1135.8"/>
</g>
<!-- _cb5odErrEfGPZ4HxkcnG6Q&#45;&gt;_cb5odUrrEfGPZ4HxkcnG6Q -->
<g id="edge67" class="edge">
<title>_cb5odErrEfGPZ4HxkcnG6Q-&gt;_cb5odUrrEfGPZ4HxkcnG6Q</title>
<path fill="none" stroke="black" d="M4048.54,-1089C4076.37,-1089 4110.23,-1089 4130.49,-1089"/>
<polygon fill="black" stroke="black" points="4130.37,-1092.5 4140.37,-1089 4130.37,-1085.5 4130.37,-1092.5"/>
</g>
<!-- _cb2lIUrrEfGPZ4HxkcnG6Q -->
<g id="node13" class="node">
<title>_cb2lIUrrEfGPZ4HxkcnG6Q</title>
<ellipse fill="none" stroke="black" cx="4889.34" cy="-374" rx="46.8" ry="46.8"/>
<text xml:space="preserve" text-anchor="middle" x="4889.34" y="-369.8" font-family="Times,serif" font-size="14.00">Confirmar_Creacion</text>
</g>
<!-- _cb2lIkrrEfGPZ4HxkcnG6Q -->
<g id="node60" class="node">
<title>_cb2lIkrrEfGPZ4HxkcnG6Q</title>
<polygon fill="none" stroke="black" points="5044.54,-420.8 5030.14,-420.8 5030.14,-327.2 5044.54,-327.2 5044.54,-420.8"/>
<text xml:space="preserve" text-anchor="middle" x="5008.5" y="-314.6" font-family="Times,serif" font-size="14.00">t=500.0</text>
<text xml:space="preserve" text-anchor="middle" x="5008.5" y="-297.8" font-family="Times,serif" font-size="14.00">infServ</text>
</g>
<!-- _cb2lIUrrEfGPZ4HxkcnG6Q&#45;&gt;_cb2lIkrrEfGPZ4HxkcnG6Q -->
<g id="edge15" class="edge">
<title>_cb2lIUrrEfGPZ4HxkcnG6Q-&gt;_cb2lIkrrEfGPZ4HxkcnG6Q</title>
<path fill="none" stroke="black" d="M4936.54,-374C4964.37,-374 4998.23,-374 5018.49,-374"/>
<polygon fill="black" stroke="black" points="5018.37,-377.5 5028.37,-374 5018.37,-370.5 5018.37,-377.5"/>
</g>
<!-- _ccEAgkrrEfGPZ4HxkcnG6Q -->
<g id="node14" class="node">
<title>_ccEAgkrrEfGPZ4HxkcnG6Q</title>
<ellipse fill="none" stroke="black" cx="962.14" cy="-1657" rx="46.8" ry="46.8"/>
<text xml:space="preserve" text-anchor="middle" x="962.14" y="-1652.8" font-family="Times,serif" font-size="14.00">Disponible</text>
</g>
<!-- _ccEnkErrEfGPZ4HxkcnG6Q -->
<g id="node50" class="node">
<title>_ccEnkErrEfGPZ4HxkcnG6Q</title>
<polygon fill="black" stroke="black" points="1117.34,-1514.8 1102.94,-1514.8 1102.94,-1421.2 1117.34,-1421.2 1117.34,-1514.8"/>
</g>
<!-- _ccEAgkrrEfGPZ4HxkcnG6Q&#45;&gt;_ccEnkErrEfGPZ4HxkcnG6Q -->
<g id="edge42" class="edge">
<title>_ccEAgkrrEfGPZ4HxkcnG6Q-&gt;_ccEnkErrEfGPZ4HxkcnG6Q</title>
<path fill="none" stroke="black" d="M991.64,-1620.11C1022.95,-1579.57 1071.94,-1516.17 1095.53,-1485.62"/>
<polygon fill="black" stroke="black" points="1098.23,-1487.85 1101.58,-1477.8 1092.69,-1483.57 1098.23,-1487.85"/>
</g>
<!-- _cb_IBErrEfGPZ4HxkcnG6Q -->
<g id="node15" class="node">
<title>_cb_IBErrEfGPZ4HxkcnG6Q</title>
<ellipse fill="none" stroke="black" cx="666.14" cy="-1657" rx="46.8" ry="46.8"/>
</g>
<!-- _ccKHIkrrEfGPZ4HxkcnG6Q -->
<g id="node34" class="node">
<title>_ccKHIkrrEfGPZ4HxkcnG6Q</title>
<polygon fill="black" stroke="black" points="821.34,-1892.8 806.94,-1892.8 806.94,-1799.2 821.34,-1799.2 821.34,-1892.8"/>
<text xml:space="preserve" text-anchor="middle" x="790.75" y="-1786.6" font-family="Times,serif" font-size="14.00">p=0.1</text>
</g>
<!-- _cb_IBErrEfGPZ4HxkcnG6Q&#45;&gt;_ccKHIkrrEfGPZ4HxkcnG6Q -->
<g id="edge36" class="edge">
<title>_cb_IBErrEfGPZ4HxkcnG6Q-&gt;_ccKHIkrrEfGPZ4HxkcnG6Q</title>
<path fill="none" stroke="black" d="M695.64,-1693.89C726.95,-1734.43 775.94,-1797.83 799.53,-1828.38"/>
<polygon fill="black" stroke="black" points="796.69,-1830.43 805.58,-1836.2 802.23,-1826.15 796.69,-1830.43"/>
</g>
<!-- _ccKuM0rrEfGPZ4HxkcnG6Q -->
<g id="node41" class="node">
<title>_ccKuM0rrEfGPZ4HxkcnG6Q</title>
<polygon fill="black" stroke="black" points="821.34,-1703.8 806.94,-1703.8 806.94,-1610.2 821.34,-1610.2 821.34,-1703.8"/>
<text xml:space="preserve" text-anchor="middle" x="790.75" y="-1597.6" font-family="Times,serif" font-size="14.00">p=0.9</text>
</g>
<!-- _cb_IBErrEfGPZ4HxkcnG6Q&#45;&gt;_ccKuM0rrEfGPZ4HxkcnG6Q -->
<g id="edge18" class="edge">
<title>_cb_IBErrEfGPZ4HxkcnG6Q-&gt;_ccKuM0rrEfGPZ4HxkcnG6Q</title>
<path fill="none" stroke="black" d="M713.34,-1657C741.17,-1657 775.03,-1657 795.29,-1657"/>
<polygon fill="black" stroke="black" points="795.17,-1660.5 805.17,-1657 795.17,-1653.5 795.17,-1660.5"/>
</g>
<!-- _cb0I4ErrEfGPZ4HxkcnG6Q -->
<g id="node16" class="node">
<title>_cb0I4ErrEfGPZ4HxkcnG6Q</title>
<ellipse fill="none" stroke="black" cx="2521.34" cy="-1657" rx="46.8" ry="46.8"/>
</g>
<!-- _ccOYkkrrEfGPZ4HxkcnG6Q -->
<g id="node30" class="node">
<title>_ccOYkkrrEfGPZ4HxkcnG6Q</title>
<polygon fill="black" stroke="black" points="2676.54,-1703.8 2662.14,-1703.8 2662.14,-1610.2 2676.54,-1610.2 2676.54,-1703.8"/>
<text xml:space="preserve" text-anchor="middle" x="2645.95" y="-1597.6" font-family="Times,serif" font-size="14.00">p=0.8</text>
</g>
<!-- _cb0I4ErrEfGPZ4HxkcnG6Q&#45;&gt;_ccOYkkrrEfGPZ4HxkcnG6Q -->
<g id="edge35" class="edge">
<title>_cb0I4ErrEfGPZ4HxkcnG6Q-&gt;_ccOYkkrrEfGPZ4HxkcnG6Q</title>
<path fill="none" stroke="black" d="M2568.54,-1657C2596.37,-1657 2630.23,-1657 2650.49,-1657"/>
<polygon fill="black" stroke="black" points="2650.37,-1660.5 2660.37,-1657 2650.37,-1653.5 2650.37,-1660.5"/>
</g>
<!-- _ccIR80rrEfGPZ4HxkcnG6Q -->
<g id="node46" class="node">
<title>_ccIR80rrEfGPZ4HxkcnG6Q</title>
<polygon fill="black" stroke="black" points="2676.54,-1515.8 2662.14,-1515.8 2662.14,-1422.2 2676.54,-1422.2 2676.54,-1515.8"/>
<text xml:space="preserve" text-anchor="middle" x="2645.95" y="-1409.6" font-family="Times,serif" font-size="14.00">p=0.2</text>
</g>
<!-- _cb0I4ErrEfGPZ4HxkcnG6Q&#45;&gt;_ccIR80rrEfGPZ4HxkcnG6Q -->
<g id="edge31" class="edge">
<title>_cb0I4ErrEfGPZ4HxkcnG6Q-&gt;_ccIR80rrEfGPZ4HxkcnG6Q</title>
<path fill="none" stroke="black" d="M2550.84,-1620.31C2582.15,-1579.98 2631.14,-1516.91 2654.73,-1486.52"/>
<polygon fill="black" stroke="black" points="2657.4,-1488.79 2660.77,-1478.75 2651.88,-1484.5 2657.4,-1488.79"/>
</g>
<!-- _ccRb4ErrEfGPZ4HxkcnG6Q -->
<g id="node17" class="node">
<title>_ccRb4ErrEfGPZ4HxkcnG6Q</title>
<ellipse fill="none" stroke="black" cx="1929.34" cy="-1657" rx="46.8" ry="46.8"/>
</g>
<!-- _ccRb4ErrEfGPZ4HxkcnG6Q&#45;&gt;_ccRb4UrrEfGPZ4HxkcnG6Q -->
<g id="edge37" class="edge">
<title>_ccRb4ErrEfGPZ4HxkcnG6Q-&gt;_ccRb4UrrEfGPZ4HxkcnG6Q</title>
<path fill="none" stroke="black" d="M1976.54,-1657C2004.37,-1657 2038.23,-1657 2058.49,-1657"/>
<polygon fill="black" stroke="black" points="2058.37,-1660.5 2068.37,-1657 2058.37,-1653.5 2058.37,-1660.5"/>
</g>
<!-- _ccUfMErrEfGPZ4HxkcnG6Q -->
<g id="node18" class="node">
<title>_ccUfMErrEfGPZ4HxkcnG6Q</title>
<ellipse fill="none" stroke="black" cx="4297.34" cy="-379" rx="46.8" ry="46.8"/>
<text xml:space="preserve" text-anchor="middle" x="4297.34" y="-374.8" font-family="Times,serif" font-size="14.00">Users</text>
</g>
<!-- _cb5ockrrEfGPZ4HxkcnG6Q -->
<g id="node39" class="node">
<title>_cb5ockrrEfGPZ4HxkcnG6Q</title>
<polygon fill="black" stroke="black" points="5340.54,-378.8 5326.14,-378.8 5326.14,-285.2 5340.54,-285.2 5340.54,-378.8"/>
</g>
<!-- _ccUfMErrEfGPZ4HxkcnG6Q&#45;&gt;_cb5ockrrEfGPZ4HxkcnG6Q -->
<g id="edge32" class="edge">
<title>_ccUfMErrEfGPZ4HxkcnG6Q-&gt;_cb5ockrrEfGPZ4HxkcnG6Q</title>
<path fill="none" stroke="black" d="M4310.15,-333.66C4339.39,-233.06 4425.17,0 4592.34,0 4592.34,0 4592.34,0 5038.34,0 5198.28,0 5292.24,-218.6 5321.99,-301.04"/>
<polygon fill="black" stroke="black" points="5318.63,-302.04 5325.25,-310.3 5325.23,-299.71 5318.63,-302.04"/>
</g>
<!-- _ccSqAErrEfGPZ4HxkcnG6Q -->
<g id="node19" class="node">
<title>_ccSqAErrEfGPZ4HxkcnG6Q</title>
<ellipse fill="none" stroke="black" cx="3705.34" cy="-853" rx="46.8" ry="46.8"/>
</g>
<!-- _ccSqAErrEfGPZ4HxkcnG6Q&#45;&gt;_ccSqAUrrEfGPZ4HxkcnG6Q -->
<g id="edge72" class="edge">
<title>_ccSqAErrEfGPZ4HxkcnG6Q-&gt;_ccSqAUrrEfGPZ4HxkcnG6Q</title>
<path fill="none" stroke="black" d="M3734.84,-816.11C3766.15,-775.57 3815.14,-712.17 3838.73,-681.62"/>
<polygon fill="black" stroke="black" points="3841.43,-683.85 3844.78,-673.8 3835.89,-679.57 3841.43,-683.85"/>
</g>
<!-- _cb4aUUrrEfGPZ4HxkcnG6Q -->
<g id="node20" class="node">
<title>_cb4aUUrrEfGPZ4HxkcnG6Q</title>
<ellipse fill="none" stroke="black" cx="3705.34" cy="-1089" rx="46.8" ry="46.8"/>
</g>
<!-- _ccGcx0rrEfGPZ4HxkcnG6Q -->
<g id="node37" class="node">
<title>_ccGcx0rrEfGPZ4HxkcnG6Q</title>
<polygon fill="black" stroke="black" points="3860.54,-1135.8 3846.14,-1135.8 3846.14,-1042.2 3860.54,-1042.2 3860.54,-1135.8"/>
<text xml:space="preserve" text-anchor="middle" x="3829.95" y="-1029.6" font-family="Times,serif" font-size="14.00">p=0.1</text>
</g>
<!-- _cb4aUUrrEfGPZ4HxkcnG6Q&#45;&gt;_ccGcx0rrEfGPZ4HxkcnG6Q -->
<g id="edge45" class="edge">
<title>_cb4aUUrrEfGPZ4HxkcnG6Q-&gt;_ccGcx0rrEfGPZ4HxkcnG6Q</title>
<path fill="none" stroke="black" d="M3752.54,-1089C3780.37,-1089 3814.23,-1089 3834.49,-1089"/>
<polygon fill="black" stroke="black" points="3834.37,-1092.5 3844.37,-1089 3834.37,-1085.5 3834.37,-1092.5"/>
</g>
<!-- _ccO_o0rrEfGPZ4HxkcnG6Q -->
<g id="node44" class="node">
<title>_ccO_o0rrEfGPZ4HxkcnG6Q</title>
<polygon fill="black" stroke="black" points="3860.54,-1561.8 3846.14,-1561.8 3846.14,-1468.2 3860.54,-1468.2 3860.54,-1561.8"/>
<text xml:space="preserve" text-anchor="middle" x="3829.95" y="-1455.6" font-family="Times,serif" font-size="14.00">p=0.9</text>
</g>
<!-- _cb4aUUrrEfGPZ4HxkcnG6Q&#45;&gt;_ccO_o0rrEfGPZ4HxkcnG6Q -->
<g id="edge7" class="edge">
<title>_cb4aUUrrEfGPZ4HxkcnG6Q-&gt;_ccO_o0rrEfGPZ4HxkcnG6Q</title>
<path fill="none" stroke="black" d="M3721.56,-1133.38C3751.37,-1220.37 3816.77,-1411.19 3842.07,-1485.01"/>
<polygon fill="black" stroke="black" points="3838.73,-1486.06 3845.28,-1494.39 3845.35,-1483.79 3838.73,-1486.06"/>
</g>
<!-- _ccEnkkrrEfGPZ4HxkcnG6Q -->
<g id="node21" class="node">
<title>_ccEnkkrrEfGPZ4HxkcnG6Q</title>
<ellipse fill="none" stroke="black" cx="1258.14" cy="-1846" rx="46.8" ry="46.8"/>
<text xml:space="preserve" text-anchor="middle" x="1258.14" y="-1841.8" font-family="Times,serif" font-size="14.00">Mostrar_Error</text>
</g>
<!-- _ccEnk0rrEfGPZ4HxkcnG6Q -->
<g id="node56" class="node">
<title>_ccEnk0rrEfGPZ4HxkcnG6Q</title>
<polygon fill="none" stroke="black" points="1452.94,-1892.8 1438.54,-1892.8 1438.54,-1799.2 1452.94,-1799.2 1452.94,-1892.8"/>
<text xml:space="preserve" text-anchor="middle" x="1416.9" y="-1786.6" font-family="Times,serif" font-size="14.00">t=500.0</text>
<text xml:space="preserve" text-anchor="middle" x="1416.9" y="-1769.8" font-family="Times,serif" font-size="14.00">infServ</text>
</g>
<!-- _ccEnkkrrEfGPZ4HxkcnG6Q&#45;&gt;_ccEnk0rrEfGPZ4HxkcnG6Q -->
<g id="edge22" class="edge">
<title>_ccEnkkrrEfGPZ4HxkcnG6Q-&gt;_ccEnk0rrEfGPZ4HxkcnG6Q</title>
<path fill="none" stroke="black" d="M1305.02,-1846C1344.32,-1846 1398.86,-1846 1426.74,-1846"/>
<polygon fill="black" stroke="black" points="1426.6,-1849.5 1436.6,-1846 1426.6,-1842.5 1426.6,-1849.5"/>
</g>
<!-- _ccBkQUrrEfGPZ4HxkcnG6Q -->
<g id="node22" class="node">
<title>_ccBkQUrrEfGPZ4HxkcnG6Q</title>
<ellipse fill="none" stroke="black" cx="3409.34" cy="-947" rx="46.8" ry="46.8"/>
<text xml:space="preserve" text-anchor="middle" x="3409.34" y="-942.8" font-family="Times,serif" font-size="14.00">Crear_Reserva</text>
</g>
<!-- _ccBkQkrrEfGPZ4HxkcnG6Q -->
<g id="node53" class="node">
<title>_ccBkQkrrEfGPZ4HxkcnG6Q</title>
<polygon fill="none" stroke="black" points="3564.54,-993.8 3550.14,-993.8 3550.14,-900.2 3564.54,-900.2 3564.54,-993.8"/>
<text xml:space="preserve" text-anchor="middle" x="3529.54" y="-887.6" font-family="Times,serif" font-size="14.00">t=20.0</text>
<text xml:space="preserve" text-anchor="middle" x="3529.54" y="-870.8" font-family="Times,serif" font-size="14.00">infServ</text>
</g>
<!-- _ccBkQUrrEfGPZ4HxkcnG6Q&#45;&gt;_ccBkQkrrEfGPZ4HxkcnG6Q -->
<g id="edge66" class="edge">
<title>_ccBkQUrrEfGPZ4HxkcnG6Q-&gt;_ccBkQkrrEfGPZ4HxkcnG6Q</title>
<path fill="none" stroke="black" d="M3456.54,-947C3484.37,-947 3518.23,-947 3538.49,-947"/>
<polygon fill="black" stroke="black" points="3538.37,-950.5 3548.37,-947 3538.37,-943.5 3538.37,-950.5"/>
</g>
<!-- _cb6Pg0rrEfGPZ4HxkcnG6Q -->
<g id="node23" class="node">
<title>_cb6Pg0rrEfGPZ4HxkcnG6Q</title>
<ellipse fill="none" stroke="black" cx="4593.34" cy="-1847" rx="46.8" ry="46.8"/>
<text xml:space="preserve" text-anchor="middle" x="4593.34" y="-1842.8" font-family="Times,serif" font-size="14.00">Error_Reserva</text>
</g>
<!-- _cb6PhErrEfGPZ4HxkcnG6Q -->
<g id="node47" class="node">
<title>_cb6PhErrEfGPZ4HxkcnG6Q</title>
<polygon fill="black" stroke="black" points="4748.54,-2272.8 4734.14,-2272.8 4734.14,-2179.2 4748.54,-2179.2 4748.54,-2272.8"/>
</g>
<!-- _cb6Pg0rrEfGPZ4HxkcnG6Q&#45;&gt;_cb6PhErrEfGPZ4HxkcnG6Q -->
<g id="edge16" class="edge">
<title>_cb6Pg0rrEfGPZ4HxkcnG6Q-&gt;_cb6PhErrEfGPZ4HxkcnG6Q</title>
<path fill="none" stroke="black" d="M4611.09,-1890.48C4641.4,-1969.16 4704.55,-2133.09 4729.69,-2198.34"/>
<polygon fill="black" stroke="black" points="4726.38,-2199.5 4733.24,-2207.57 4732.92,-2196.98 4726.38,-2199.5"/>
</g>
<!-- _cb_IBUrrEfGPZ4HxkcnG6Q -->
<g id="node24" class="node">
<title>_cb_IBUrrEfGPZ4HxkcnG6Q</title>
<ellipse fill="none" stroke="black" cx="1633.34" cy="-1846" rx="46.8" ry="46.8"/>
<text xml:space="preserve" text-anchor="middle" x="1633.34" y="-1841.8" font-family="Times,serif" font-size="14.00">Crear_Reserva</text>
</g>
<!-- _cb_vEErrEfGPZ4HxkcnG6Q -->
<g id="node58" class="node">
<title>_cb_vEErrEfGPZ4HxkcnG6Q</title>
<polygon fill="none" stroke="black" points="1788.54,-1703.8 1774.14,-1703.8 1774.14,-1610.2 1788.54,-1610.2 1788.54,-1703.8"/>
<text xml:space="preserve" text-anchor="middle" x="1752.5" y="-1597.6" font-family="Times,serif" font-size="14.00">t=500.0</text>
<text xml:space="preserve" text-anchor="middle" x="1752.5" y="-1580.8" font-family="Times,serif" font-size="14.00">infServ</text>
</g>
<!-- _cb_IBUrrEfGPZ4HxkcnG6Q&#45;&gt;_cb_vEErrEfGPZ4HxkcnG6Q -->
<g id="edge54" class="edge">
<title>_cb_IBUrrEfGPZ4HxkcnG6Q-&gt;_cb_vEErrEfGPZ4HxkcnG6Q</title>
<path fill="none" stroke="black" d="M1662.84,-1809.11C1694.15,-1768.57 1743.14,-1705.17 1766.73,-1674.62"/>
<polygon fill="black" stroke="black" points="1769.43,-1676.85 1772.78,-1666.8 1763.89,-1672.57 1769.43,-1676.85"/>
</g>
<!-- _cb9S0ErrEfGPZ4HxkcnG6Q -->
<g id="node25" class="node">
<title>_cb9S0ErrEfGPZ4HxkcnG6Q</title>
<ellipse fill="none" stroke="black" cx="3409.34" cy="-759" rx="46.8" ry="46.8"/>
<text xml:space="preserve" text-anchor="middle" x="3409.34" y="-754.8" font-family="Times,serif" font-size="14.00">Validar_Credenciales</text>
</g>
<!-- _cb9S0UrrEfGPZ4HxkcnG6Q -->
<g id="node57" class="node">
<title>_cb9S0UrrEfGPZ4HxkcnG6Q</title>
<polygon fill="none" stroke="black" points="3564.54,-805.8 3550.14,-805.8 3550.14,-712.2 3564.54,-712.2 3564.54,-805.8"/>
<text xml:space="preserve" text-anchor="middle" x="3514.5" y="-699.6" font-family="Times,serif" font-size="14.00">t=33.333332</text>
<text xml:space="preserve" text-anchor="middle" x="3514.5" y="-682.8" font-family="Times,serif" font-size="14.00">infServ</text>
</g>
<!-- _cb9S0ErrEfGPZ4HxkcnG6Q&#45;&gt;_cb9S0UrrEfGPZ4HxkcnG6Q -->
<g id="edge48" class="edge">
<title>_cb9S0ErrEfGPZ4HxkcnG6Q-&gt;_cb9S0UrrEfGPZ4HxkcnG6Q</title>
<path fill="none" stroke="black" d="M3456.54,-759C3484.37,-759 3518.23,-759 3538.49,-759"/>
<polygon fill="black" stroke="black" points="3538.37,-762.5 3548.37,-759 3538.37,-755.5 3538.37,-762.5"/>
</g>
<!-- _ccGcw0rrEfGPZ4HxkcnG6Q -->
<g id="node26" class="node">
<title>_ccGcw0rrEfGPZ4HxkcnG6Q</title>
<ellipse fill="none" stroke="black" cx="4593.34" cy="-540" rx="46.8" ry="46.8"/>
<text xml:space="preserve" text-anchor="middle" x="4593.34" y="-535.8" font-family="Times,serif" font-size="14.00">Creacion_Reserva_Correcta</text>
</g>
<!-- _ccGcxErrEfGPZ4HxkcnG6Q -->
<g id="node36" class="node">
<title>_ccGcxErrEfGPZ4HxkcnG6Q</title>
<polygon fill="black" stroke="black" points="4748.54,-420.8 4734.14,-420.8 4734.14,-327.2 4748.54,-327.2 4748.54,-420.8"/>
</g>
<!-- _ccGcw0rrEfGPZ4HxkcnG6Q&#45;&gt;_ccGcxErrEfGPZ4HxkcnG6Q -->
<g id="edge47" class="edge">
<title>_ccGcw0rrEfGPZ4HxkcnG6Q-&gt;_ccGcxErrEfGPZ4HxkcnG6Q</title>
<path fill="none" stroke="black" d="M4624.95,-505.2C4656.23,-469.64 4703.4,-416.01 4726.54,-389.69"/>
<polygon fill="black" stroke="black" points="4728.93,-392.28 4732.91,-382.45 4723.68,-387.65 4728.93,-392.28"/>
</g>
<!-- _ccEAgUrrEfGPZ4HxkcnG6Q -->
<g id="node27" class="node">
<title>_ccEAgUrrEfGPZ4HxkcnG6Q</title>
<ellipse fill="none" stroke="black" cx="4297.34" cy="-664" rx="46.8" ry="46.8"/>
</g>
<!-- _ccL8UErrEfGPZ4HxkcnG6Q -->
<g id="node33" class="node">
<title>_ccL8UErrEfGPZ4HxkcnG6Q</title>
<polygon fill="black" stroke="black" points="4452.54,-669.8 4438.14,-669.8 4438.14,-576.2 4452.54,-576.2 4452.54,-669.8"/>
<text xml:space="preserve" text-anchor="middle" x="4421.95" y="-563.6" font-family="Times,serif" font-size="14.00">p=0.8</text>
</g>
<!-- _ccEAgUrrEfGPZ4HxkcnG6Q&#45;&gt;_ccL8UErrEfGPZ4HxkcnG6Q -->
<g id="edge63" class="edge">
<title>_ccEAgUrrEfGPZ4HxkcnG6Q-&gt;_ccL8UErrEfGPZ4HxkcnG6Q</title>
<path fill="none" stroke="black" d="M4342.94,-651.48C4371.14,-643.56 4406.04,-633.76 4426.68,-627.96"/>
<polygon fill="black" stroke="black" points="4427.59,-631.34 4436.27,-625.27 4425.7,-624.6 4427.59,-631.34"/>
</g>
<!-- _ccMjY0rrEfGPZ4HxkcnG6Q -->
<g id="node40" class="node">
<title>_ccMjY0rrEfGPZ4HxkcnG6Q</title>
<polygon fill="black" stroke="black" points="4452.54,-1703.8 4438.14,-1703.8 4438.14,-1610.2 4452.54,-1610.2 4452.54,-1703.8"/>
<text xml:space="preserve" text-anchor="middle" x="4421.95" y="-1597.6" font-family="Times,serif" font-size="14.00">p=0.2</text>
</g>
<!-- _ccEAgUrrEfGPZ4HxkcnG6Q&#45;&gt;_ccMjY0rrEfGPZ4HxkcnG6Q -->
<g id="edge6" class="edge">
<title>_ccEAgUrrEfGPZ4HxkcnG6Q-&gt;_ccMjY0rrEfGPZ4HxkcnG6Q</title>
<path fill="none" stroke="black" d="M4305.19,-710.56C4329.24,-874.15 4409.83,-1422.26 4436.03,-1600.48"/>
<polygon fill="black" stroke="black" points="4432.54,-1600.8 4437.46,-1610.18 4439.47,-1599.78 4432.54,-1600.8"/>
</g>
<!-- _ccSqBUrrEfGPZ4HxkcnG6Q -->
<g id="node28" class="node">
<title>_ccSqBUrrEfGPZ4HxkcnG6Q</title>
<ellipse fill="none" stroke="black" cx="3113.34" cy="-1610" rx="46.8" ry="46.8"/>
</g>
<!-- _ccSqBUrrEfGPZ4HxkcnG6Q&#45;&gt;_ccSqBkrrEfGPZ4HxkcnG6Q -->
<g id="edge14" class="edge">
<title>_ccSqBUrrEfGPZ4HxkcnG6Q-&gt;_ccSqBkrrEfGPZ4HxkcnG6Q</title>
<path fill="none" stroke="black" d="M3095.7,-1653.81C3039.08,-1794.54 2839.62,-2226 2522.34,-2226 961.14,-2226 961.14,-2226 961.14,-2226 594.71,-2226 298.98,-1780.59 235.69,-1677.93"/>
<polygon fill="black" stroke="black" points="238.69,-1676.12 230.49,-1669.4 232.71,-1679.76 238.69,-1676.12"/>
</g>
<!-- _cb5ocUrrEfGPZ4HxkcnG6Q -->
<g id="node29" class="node">
<title>_cb5ocUrrEfGPZ4HxkcnG6Q</title>
<ellipse fill="none" stroke="black" cx="5185.34" cy="-374" rx="46.8" ry="46.8"/>
<text xml:space="preserve" text-anchor="middle" x="5185.34" y="-369.8" font-family="Times,serif" font-size="14.00">FinishConsulta</text>
</g>
<!-- _cb5ocUrrEfGPZ4HxkcnG6Q&#45;&gt;_cb5ockrrEfGPZ4HxkcnG6Q -->
<g id="edge69" class="edge">
<title>_cb5ocUrrEfGPZ4HxkcnG6Q-&gt;_cb5ockrrEfGPZ4HxkcnG6Q</title>
<path fill="none" stroke="black" d="M5230.54,-361.28C5258.9,-353.13 5294.16,-342.98 5314.87,-337.03"/>
<polygon fill="black" stroke="black" points="5315.59,-340.46 5324.23,-334.33 5313.66,-333.73 5315.59,-340.46"/>
</g>
<!-- _ccOYkkrrEfGPZ4HxkcnG6Q&#45;&gt;_ccCyYUrrEfGPZ4HxkcnG6Q -->
<g id="edge10" class="edge">
<title>_ccOYkkrrEfGPZ4HxkcnG6Q-&gt;_ccCyYUrrEfGPZ4HxkcnG6Q</title>
<path fill="none" stroke="black" d="M2677,-1657C2691.5,-1657 2727.23,-1657 2758.87,-1657"/>
<polygon fill="black" stroke="black" points="2758.78,-1660.5 2768.78,-1657 2758.78,-1653.5 2758.78,-1660.5"/>
</g>
<!-- _ccSqBkrrEfGPZ4HxkcnG6Q&#45;&gt;_cb62kErrEfGPZ4HxkcnG6Q -->
<g id="edge19" class="edge">
<title>_ccSqBkrrEfGPZ4HxkcnG6Q-&gt;_cb62kErrEfGPZ4HxkcnG6Q</title>
<path fill="none" stroke="black" d="M229.8,-1657C244.3,-1657 280.03,-1657 311.67,-1657"/>
<polygon fill="black" stroke="black" points="311.58,-1660.5 321.58,-1657 311.58,-1653.5 311.58,-1660.5"/>
</g>
<!-- _cb_IAkrrEfGPZ4HxkcnG6Q&#45;&gt;_ccQNwErrEfGPZ4HxkcnG6Q -->
<g id="edge60" class="edge">
<title>_cb_IAkrrEfGPZ4HxkcnG6Q-&gt;_ccQNwErrEfGPZ4HxkcnG6Q</title>
<path fill="none" stroke="black" d="M4141.93,-1704C4110.51,-1704 3969.7,-1704 3854.34,-1704 3408.34,-1704 3408.34,-1704 3408.34,-1704 3181.13,-1704 3129.27,-1340.37 3117.64,-1196.03"/>
<polygon fill="black" stroke="black" points="3121.15,-1196.01 3116.9,-1186.31 3114.17,-1196.55 3121.15,-1196.01"/>
</g>
<!-- _cb_IAkrrEfGPZ4HxkcnG6Q&#45;&gt;_cb_IBUrrEfGPZ4HxkcnG6Q -->
<g id="edge71" class="edge">
<title>_cb_IAkrrEfGPZ4HxkcnG6Q-&gt;_cb_IBUrrEfGPZ4HxkcnG6Q</title>
<path fill="none" stroke="black" d="M4141.7,-1712.66C4112.37,-1749.83 3989.87,-1894 3854.34,-1894 3112.34,-1894 3112.34,-1894 3112.34,-1894 2914.74,-1894 2867.94,-1846 2670.34,-1846 1928.34,-1846 1928.34,-1846 1928.34,-1846 1846.16,-1846 1751.05,-1846 1691.79,-1846"/>
<polygon fill="black" stroke="black" points="1691.94,-1842.5 1681.94,-1846 1691.94,-1849.5 1691.94,-1842.5"/>
</g>
<!-- _ccL8UErrEfGPZ4HxkcnG6Q&#45;&gt;_ccGcw0rrEfGPZ4HxkcnG6Q -->
<g id="edge8" class="edge">
<title>_ccL8UErrEfGPZ4HxkcnG6Q-&gt;_ccGcw0rrEfGPZ4HxkcnG6Q</title>
<path fill="none" stroke="black" d="M4453,-619.22C4468.69,-610.3 4509.18,-587.28 4542.5,-568.34"/>
<polygon fill="black" stroke="black" points="4543.85,-571.6 4550.81,-563.61 4540.39,-565.51 4543.85,-571.6"/>
</g>
<!-- _ccKHIkrrEfGPZ4HxkcnG6Q&#45;&gt;_ccGcwErrEfGPZ4HxkcnG6Q -->
<g id="edge9" class="edge">
<title>_ccKHIkrrEfGPZ4HxkcnG6Q-&gt;_ccGcwErrEfGPZ4HxkcnG6Q</title>
<path fill="none" stroke="black" d="M821.8,-1846C836.3,-1846 872.03,-1846 903.67,-1846"/>
<polygon fill="black" stroke="black" points="903.58,-1849.5 913.58,-1846 903.58,-1842.5 903.58,-1849.5"/>
</g>
<!-- _cb6PgUrrEfGPZ4HxkcnG6Q&#45;&gt;_ccQNwErrEfGPZ4HxkcnG6Q -->
<g id="edge43" class="edge">
<title>_cb6PgUrrEfGPZ4HxkcnG6Q-&gt;_ccQNwErrEfGPZ4HxkcnG6Q</title>
<path fill="none" stroke="black" d="M2973,-1273.53C2990.04,-1256.95 3036.36,-1211.9 3070.95,-1178.26"/>
<polygon fill="black" stroke="black" points="3073.2,-1180.95 3077.93,-1171.47 3068.32,-1175.93 3073.2,-1180.95"/>
</g>
<!-- _cb6PgUrrEfGPZ4HxkcnG6Q&#45;&gt;_ccEnkkrrEfGPZ4HxkcnG6Q -->
<g id="edge68" class="edge">
<title>_cb6PgUrrEfGPZ4HxkcnG6Q-&gt;_ccEnkkrrEfGPZ4HxkcnG6Q</title>
<path fill="none" stroke="black" d="M2957.94,-1279.96C2911.01,-1279.69 2615.06,-1278 2374.34,-1278 1632.34,-1278 1632.34,-1278 1632.34,-1278 1389.95,-1278 1296.25,-1643.78 1268.7,-1788.28"/>
<polygon fill="black" stroke="black" points="1265.27,-1787.56 1266.88,-1798.03 1272.16,-1788.84 1265.27,-1787.56"/>
</g>
<!-- _ccGcxErrEfGPZ4HxkcnG6Q&#45;&gt;_ccQ00ErrEfGPZ4HxkcnG6Q -->
<g id="edge24" class="edge">
<title>_ccGcxErrEfGPZ4HxkcnG6Q-&gt;_ccQ00ErrEfGPZ4HxkcnG6Q</title>
<path fill="none" stroke="black" d="M4734.03,-366.09C4705.16,-330.88 4581.22,-190 4446.34,-190 369.14,-190 369.14,-190 369.14,-190 96.11,-190 75.81,-1242.01 74.99,-1503.63"/>
<polygon fill="black" stroke="black" points="71.49,-1503.25 74.96,-1513.26 78.49,-1503.27 71.49,-1503.25"/>
</g>
<!-- _ccGcxErrEfGPZ4HxkcnG6Q&#45;&gt;_cb2lIUrrEfGPZ4HxkcnG6Q -->
<g id="edge30" class="edge">
<title>_ccGcxErrEfGPZ4HxkcnG6Q-&gt;_cb2lIUrrEfGPZ4HxkcnG6Q</title>
<path fill="none" stroke="black" d="M4749,-374C4763.5,-374 4799.23,-374 4830.87,-374"/>
<polygon fill="black" stroke="black" points="4830.78,-377.5 4840.78,-374 4830.78,-370.5 4830.78,-377.5"/>
</g>
<!-- _ccGcx0rrEfGPZ4HxkcnG6Q&#45;&gt;_cb5odErrEfGPZ4HxkcnG6Q -->
<g id="edge2" class="edge">
<title>_ccGcx0rrEfGPZ4HxkcnG6Q-&gt;_cb5odErrEfGPZ4HxkcnG6Q</title>
<path fill="none" stroke="black" d="M3861,-1089C3875.5,-1089 3911.23,-1089 3942.87,-1089"/>
<polygon fill="black" stroke="black" points="3942.78,-1092.5 3952.78,-1089 3942.78,-1085.5 3942.78,-1092.5"/>
</g>
<!-- _ccRb4UrrEfGPZ4HxkcnG6Q&#45;&gt;_cb4aUkrrEfGPZ4HxkcnG6Q -->
<g id="edge4" class="edge">
<title>_ccRb4UrrEfGPZ4HxkcnG6Q-&gt;_cb4aUkrrEfGPZ4HxkcnG6Q</title>
<path fill="none" stroke="black" d="M2085,-1657C2099.5,-1657 2135.23,-1657 2166.87,-1657"/>
<polygon fill="black" stroke="black" points="2166.78,-1660.5 2176.78,-1657 2166.78,-1653.5 2166.78,-1660.5"/>
</g>
<!-- _ccMjY0rrEfGPZ4HxkcnG6Q&#45;&gt;_cb6Pg0rrEfGPZ4HxkcnG6Q -->
<g id="edge20" class="edge">
<title>_ccMjY0rrEfGPZ4HxkcnG6Q-&gt;_cb6Pg0rrEfGPZ4HxkcnG6Q</title>
<path fill="none" stroke="black" d="M4453,-1665.66C4471.05,-1689.16 4521.98,-1755.43 4556.99,-1800.99"/>
<polygon fill="black" stroke="black" points="4554.19,-1803.1 4563.06,-1808.89 4559.75,-1798.83 4554.19,-1803.1"/>
</g>
<!-- _ccKuM0rrEfGPZ4HxkcnG6Q&#45;&gt;_ccEAgkrrEfGPZ4HxkcnG6Q -->
<g id="edge57" class="edge">
<title>_ccKuM0rrEfGPZ4HxkcnG6Q-&gt;_ccEAgkrrEfGPZ4HxkcnG6Q</title>
<path fill="none" stroke="black" d="M821.8,-1657C836.3,-1657 872.03,-1657 903.67,-1657"/>
<polygon fill="black" stroke="black" points="903.58,-1660.5 913.58,-1657 903.58,-1653.5 903.58,-1660.5"/>
</g>
<!-- _cb5odUrrEfGPZ4HxkcnG6Q&#45;&gt;_ccQNwErrEfGPZ4HxkcnG6Q -->
<g id="edge13" class="edge">
<title>_cb5odUrrEfGPZ4HxkcnG6Q-&gt;_ccQNwErrEfGPZ4HxkcnG6Q</title>
<path fill="none" stroke="black" d="M4141.68,-1100.75C4113.58,-1148.57 3999.56,-1326 3854.34,-1326 3408.34,-1326 3408.34,-1326 3408.34,-1326 3302.02,-1326 3203.31,-1237.65 3151.74,-1182.09"/>
<polygon fill="black" stroke="black" points="3154.53,-1179.95 3145.2,-1174.92 3149.36,-1184.67 3154.53,-1179.95"/>
</g>
<!-- _cb5odUrrEfGPZ4HxkcnG6Q&#45;&gt;_cb5ocUrrEfGPZ4HxkcnG6Q -->
<g id="edge25" class="edge">
<title>_cb5odUrrEfGPZ4HxkcnG6Q-&gt;_cb5ocUrrEfGPZ4HxkcnG6Q</title>
<path fill="none" stroke="black" d="M4156.79,-1084.23C4187.27,-1062.15 4320.6,-971 4444.34,-971 4444.34,-971 4444.34,-971 4890.34,-971 5128.91,-971 5173.9,-582.57 5182.38,-432.34"/>
<polygon fill="black" stroke="black" points="5185.86,-432.78 5182.89,-422.61 5178.87,-432.41 5185.86,-432.78"/>
</g>
<!-- _ccGcwUrrEfGPZ4HxkcnG6Q&#45;&gt;_ccQ00ErrEfGPZ4HxkcnG6Q -->
<g id="edge46" class="edge">
<title>_ccGcwUrrEfGPZ4HxkcnG6Q-&gt;_ccQ00ErrEfGPZ4HxkcnG6Q</title>
<path fill="none" stroke="black" d="M1102.5,-1854.66C1073.17,-1891.83 950.67,-2036 815.14,-2036 369.14,-2036 369.14,-2036 369.14,-2036 175.23,-2036 104.79,-1745.97 83.31,-1619.65"/>
<polygon fill="black" stroke="black" points="86.77,-1619.1 81.69,-1609.81 79.86,-1620.24 86.77,-1619.1"/>
</g>
<!-- _ccGcwUrrEfGPZ4HxkcnG6Q&#45;&gt;_ccEnkkrrEfGPZ4HxkcnG6Q -->
<g id="edge26" class="edge">
<title>_ccGcwUrrEfGPZ4HxkcnG6Q-&gt;_ccEnkkrrEfGPZ4HxkcnG6Q</title>
<path fill="none" stroke="black" d="M1117.8,-1846C1132.3,-1846 1168.03,-1846 1199.67,-1846"/>
<polygon fill="black" stroke="black" points="1199.58,-1849.5 1209.58,-1846 1199.58,-1842.5 1199.58,-1849.5"/>
</g>
<!-- _ccO_o0rrEfGPZ4HxkcnG6Q&#45;&gt;_cb_IAUrrEfGPZ4HxkcnG6Q -->
<g id="edge70" class="edge">
<title>_ccO_o0rrEfGPZ4HxkcnG6Q-&gt;_cb_IAUrrEfGPZ4HxkcnG6Q</title>
<path fill="none" stroke="black" d="M3861,-1515C3875.5,-1515 3911.23,-1515 3942.87,-1515"/>
<polygon fill="black" stroke="black" points="3942.78,-1518.5 3952.78,-1515 3942.78,-1511.5 3942.78,-1518.5"/>
</g>
<!-- _ccSC&#45;UrrEfGPZ4HxkcnG6Q&#45;&gt;_cb9S0ErrEfGPZ4HxkcnG6Q -->
<g id="edge38" class="edge">
<title>_ccSC-UrrEfGPZ4HxkcnG6Q-&gt;_cb9S0ErrEfGPZ4HxkcnG6Q</title>
<path fill="none" stroke="black" d="M3269,-759C3283.5,-759 3319.23,-759 3350.87,-759"/>
<polygon fill="black" stroke="black" points="3350.78,-762.5 3360.78,-759 3350.78,-755.5 3350.78,-762.5"/>
</g>
<!-- _ccIR80rrEfGPZ4HxkcnG6Q&#45;&gt;_cb6PgErrEfGPZ4HxkcnG6Q -->
<g id="edge73" class="edge">
<title>_ccIR80rrEfGPZ4HxkcnG6Q-&gt;_cb6PgErrEfGPZ4HxkcnG6Q</title>
<path fill="none" stroke="black" d="M2677,-1469C2691.5,-1469 2727.23,-1469 2758.87,-1469"/>
<polygon fill="black" stroke="black" points="2758.78,-1472.5 2768.78,-1469 2758.78,-1465.5 2758.78,-1472.5"/>
</g>
<!-- _cb6PhErrEfGPZ4HxkcnG6Q&#45;&gt;_ccQ00ErrEfGPZ4HxkcnG6Q -->
<g id="edge59" class="edge">
<title>_cb6PhErrEfGPZ4HxkcnG6Q-&gt;_ccQ00ErrEfGPZ4HxkcnG6Q</title>
<path fill="none" stroke="black" d="M4733.7,-2234.66C4704.37,-2271.83 4581.87,-2416 4446.34,-2416 369.14,-2416 369.14,-2416 369.14,-2416 200.3,-2416 107.48,-1811.68 82.26,-1619.76"/>
<polygon fill="black" stroke="black" points="85.75,-1619.49 80.99,-1610.02 78.81,-1620.39 85.75,-1619.49"/>
</g>
<!-- _cb6PhErrEfGPZ4HxkcnG6Q&#45;&gt;_ccEnkkrrEfGPZ4HxkcnG6Q -->
<g id="edge28" class="edge">
<title>_cb6PhErrEfGPZ4HxkcnG6Q-&gt;_ccEnkkrrEfGPZ4HxkcnG6Q</title>
<path fill="none" stroke="black" d="M4733.93,-2226C4702.51,-2226 4561.7,-2226 4446.34,-2226 2964.34,-2226 2964.34,-2226 2964.34,-2226 2750.52,-2226 2736.17,-2036 2522.34,-2036 1632.34,-2036 1632.34,-2036 1632.34,-2036 1500.14,-2036 1367.46,-1940.14 1301.67,-1884.6"/>
<polygon fill="black" stroke="black" points="1304.25,-1882.2 1294.38,-1878.36 1299.7,-1887.52 1304.25,-1882.2"/>
</g>
<!-- _ccSC9ErrEfGPZ4HxkcnG6Q&#45;&gt;_ccBkQUrrEfGPZ4HxkcnG6Q -->
<g id="edge17" class="edge">
<title>_ccSC9ErrEfGPZ4HxkcnG6Q-&gt;_ccBkQUrrEfGPZ4HxkcnG6Q</title>
<path fill="none" stroke="black" d="M3269,-947C3283.5,-947 3319.23,-947 3350.87,-947"/>
<polygon fill="black" stroke="black" points="3350.78,-950.5 3360.78,-947 3350.78,-943.5 3350.78,-950.5"/>
</g>
<!-- _ccSqAUrrEfGPZ4HxkcnG6Q&#45;&gt;_cb0I4UrrEfGPZ4HxkcnG6Q -->
<g id="edge61" class="edge">
<title>_ccSqAUrrEfGPZ4HxkcnG6Q-&gt;_cb0I4UrrEfGPZ4HxkcnG6Q</title>
<path fill="none" stroke="black" d="M3861,-664C3875.5,-664 3911.23,-664 3942.87,-664"/>
<polygon fill="black" stroke="black" points="3942.78,-667.5 3952.78,-664 3942.78,-660.5 3942.78,-667.5"/>
</g>
<!-- _ccEnkErrEfGPZ4HxkcnG6Q&#45;&gt;_ccQ00ErrEfGPZ4HxkcnG6Q -->
<g id="edge52" class="edge">
<title>_ccEnkErrEfGPZ4HxkcnG6Q-&gt;_ccQ00ErrEfGPZ4HxkcnG6Q</title>
<path fill="none" stroke="black" d="M1102.73,-1468C1071.31,-1468 930.5,-1468 815.14,-1468 369.14,-1468 369.14,-1468 369.14,-1468 280.36,-1468 183.35,-1507.38 125.95,-1535.16"/>
<polygon fill="black" stroke="black" points="124.49,-1531.98 117.06,-1539.53 127.58,-1538.26 124.49,-1531.98"/>
</g>
<!-- _ccEnkErrEfGPZ4HxkcnG6Q&#45;&gt;_ccSC80rrEfGPZ4HxkcnG6Q -->
<g id="edge44" class="edge">
<title>_ccEnkErrEfGPZ4HxkcnG6Q-&gt;_ccSC80rrEfGPZ4HxkcnG6Q</title>
<path fill="none" stroke="black" d="M1117.81,-1458.55C1154.76,-1406.16 1335.54,-1149.84 1411.27,-1042.46"/>
<polygon fill="black" stroke="black" points="1414.06,-1044.58 1416.96,-1034.39 1408.34,-1040.55 1414.06,-1044.58"/>
</g>
<!-- _cb62kUrrEfGPZ4HxkcnG6Q&#45;&gt;_cb_IBErrEfGPZ4HxkcnG6Q -->
<g id="edge50" class="edge">
<title>_cb62kUrrEfGPZ4HxkcnG6Q-&gt;_cb_IBErrEfGPZ4HxkcnG6Q</title>
<path fill="none" stroke="black" d="M525.8,-1657C540.3,-1657 576.03,-1657 607.67,-1657"/>
<polygon fill="black" stroke="black" points="607.58,-1660.5 617.58,-1657 607.58,-1653.5 607.58,-1660.5"/>
</g>
<!-- _cb4aU0rrEfGPZ4HxkcnG6Q&#45;&gt;_cb0I4ErrEfGPZ4HxkcnG6Q -->
<g id="edge12" class="edge">
<title>_cb4aU0rrEfGPZ4HxkcnG6Q-&gt;_cb0I4ErrEfGPZ4HxkcnG6Q</title>
<path fill="none" stroke="black" d="M2381,-1657C2395.5,-1657 2431.23,-1657 2462.87,-1657"/>
<polygon fill="black" stroke="black" points="2462.78,-1660.5 2472.78,-1657 2462.78,-1653.5 2462.78,-1660.5"/>
</g>
<!-- _ccBkQkrrEfGPZ4HxkcnG6Q&#45;&gt;_ccQNwErrEfGPZ4HxkcnG6Q -->
<g id="edge21" class="edge">
<title>_ccBkQkrrEfGPZ4HxkcnG6Q-&gt;_ccQNwErrEfGPZ4HxkcnG6Q</title>
<path fill="none" stroke="black" d="M3549.8,-955.43C3535.09,-973.79 3497.45,-1017.62 3456.14,-1041 3364.1,-1093.09 3242.03,-1118.92 3171.44,-1130.29"/>
<polygon fill="black" stroke="black" points="3170.98,-1126.82 3161.64,-1131.83 3172.06,-1133.74 3170.98,-1126.82"/>
</g>
<!-- _ccBkQkrrEfGPZ4HxkcnG6Q&#45;&gt;_ccSqAErrEfGPZ4HxkcnG6Q -->
<g id="edge55" class="edge">
<title>_ccBkQkrrEfGPZ4HxkcnG6Q-&gt;_ccSqAErrEfGPZ4HxkcnG6Q</title>
<path fill="none" stroke="black" d="M3565,-942.72C3580.89,-932.48 3622.24,-905.86 3655.79,-884.26"/>
<polygon fill="black" stroke="black" points="3657.68,-887.2 3664.2,-878.85 3653.89,-881.32 3657.68,-887.2"/>
</g>
<!-- _ccCyYkrrEfGPZ4HxkcnG6Q&#45;&gt;_ccQNwErrEfGPZ4HxkcnG6Q -->
<g id="edge11" class="edge">
<title>_ccCyYkrrEfGPZ4HxkcnG6Q-&gt;_ccQNwErrEfGPZ4HxkcnG6Q</title>
<path fill="none" stroke="black" d="M2973,-1497.82C2993.73,-1444.29 3057.77,-1278.92 3091.33,-1192.25"/>
<polygon fill="black" stroke="black" points="3094.57,-1193.58 3094.92,-1182.99 3088.05,-1191.05 3094.57,-1193.58"/>
</g>
<!-- _ccCyYkrrEfGPZ4HxkcnG6Q&#45;&gt;_ccSqBUrrEfGPZ4HxkcnG6Q -->
<g id="edge39" class="edge">
<title>_ccCyYkrrEfGPZ4HxkcnG6Q-&gt;_ccSqBUrrEfGPZ4HxkcnG6Q</title>
<path fill="none" stroke="black" d="M2973,-1519.33C2988.96,-1529.71 3030.59,-1556.8 3064.22,-1578.69"/>
<polygon fill="black" stroke="black" points="3061.91,-1581.36 3072.2,-1583.88 3065.73,-1575.49 3061.91,-1581.36"/>
</g>
<!-- _cb0I4krrEfGPZ4HxkcnG6Q&#45;&gt;_ccEAgUrrEfGPZ4HxkcnG6Q -->
<g id="edge5" class="edge">
<title>_cb0I4krrEfGPZ4HxkcnG6Q-&gt;_ccEAgUrrEfGPZ4HxkcnG6Q</title>
<path fill="none" stroke="black" d="M4157,-664C4171.5,-664 4207.23,-664 4238.87,-664"/>
<polygon fill="black" stroke="black" points="4238.78,-667.5 4248.78,-664 4238.78,-660.5 4238.78,-667.5"/>
</g>
<!-- _ccEnk0rrEfGPZ4HxkcnG6Q&#45;&gt;_cb_IBUrrEfGPZ4HxkcnG6Q -->
<g id="edge41" class="edge">
<title>_ccEnk0rrEfGPZ4HxkcnG6Q-&gt;_cb_IBUrrEfGPZ4HxkcnG6Q</title>
<path fill="none" stroke="black" d="M1453.35,-1846C1472.6,-1846 1530.09,-1846 1574.78,-1846"/>
<polygon fill="black" stroke="black" points="1574.62,-1849.5 1584.62,-1846 1574.62,-1842.5 1574.62,-1849.5"/>
</g>
<!-- _cb9S0UrrEfGPZ4HxkcnG6Q&#45;&gt;_cb4aUUrrEfGPZ4HxkcnG6Q -->
<g id="edge62" class="edge">
<title>_cb9S0UrrEfGPZ4HxkcnG6Q-&gt;_cb4aUUrrEfGPZ4HxkcnG6Q</title>
<path fill="none" stroke="black" d="M3565,-774.04C3585.22,-819.74 3646.64,-958.58 3680.8,-1035.78"/>
<polygon fill="black" stroke="black" points="3677.57,-1037.14 3684.82,-1044.87 3683.97,-1034.31 3677.57,-1037.14"/>
</g>
<!-- _cb_vEErrEfGPZ4HxkcnG6Q&#45;&gt;_ccRb4ErrEfGPZ4HxkcnG6Q -->
<g id="edge56" class="edge">
<title>_cb_vEErrEfGPZ4HxkcnG6Q-&gt;_ccRb4ErrEfGPZ4HxkcnG6Q</title>
<path fill="none" stroke="black" d="M1789,-1657C1803.5,-1657 1839.23,-1657 1870.87,-1657"/>
<polygon fill="black" stroke="black" points="1870.78,-1660.5 1880.78,-1657 1870.78,-1653.5 1870.78,-1660.5"/>
</g>
<!-- _cb8EsUrrEfGPZ4HxkcnG6Q -->
<g id="node59" class="node">
<title>_cb8EsUrrEfGPZ4HxkcnG6Q</title>
<polygon fill="none" stroke="black" points="2972.54,-663.8 2958.14,-663.8 2958.14,-570.2 2972.54,-570.2 2972.54,-663.8"/>
<text xml:space="preserve" text-anchor="middle" x="2935.21" y="-557.6" font-family="Times,serif" font-size="14.00">t=10.0</text>
<text xml:space="preserve" text-anchor="middle" x="2935.21" y="-540.8" font-family="Times,serif" font-size="14.00">oneServ</text>
</g>
<!-- _cb8EsUrrEfGPZ4HxkcnG6Q&#45;&gt;_ccSC&#45;ErrEfGPZ4HxkcnG6Q -->
<g id="edge40" class="edge">
<title>_cb8EsUrrEfGPZ4HxkcnG6Q-&gt;_ccSC-ErrEfGPZ4HxkcnG6Q</title>
<path fill="none" stroke="black" d="M2973,-623.47C2990.04,-640.05 3036.36,-685.1 3070.95,-718.74"/>
<polygon fill="black" stroke="black" points="3068.32,-721.07 3077.93,-725.53 3073.2,-716.05 3068.32,-721.07"/>
</g>
<!-- _cb8EsUrrEfGPZ4HxkcnG6Q&#45;&gt;_ccUfMErrEfGPZ4HxkcnG6Q -->
<g id="edge75" class="edge">
<title>_cb8EsUrrEfGPZ4HxkcnG6Q-&gt;_ccUfMErrEfGPZ4HxkcnG6Q</title>
<path fill="none" stroke="black" d="M2973,-613.08C3026.01,-582.27 3386.09,-380 3704.34,-380 3704.34,-380 3704.34,-380 4002.34,-380 4084.53,-380 4179.64,-379.6 4238.9,-379.31"/>
<polygon fill="black" stroke="black" points="4238.76,-382.81 4248.75,-379.26 4238.73,-375.81 4238.76,-382.81"/>
</g>
<!-- _cb2lIkrrEfGPZ4HxkcnG6Q&#45;&gt;_cb5ocUrrEfGPZ4HxkcnG6Q -->
<g id="edge74" class="edge">
<title>_cb2lIkrrEfGPZ4HxkcnG6Q-&gt;_cb5ocUrrEfGPZ4HxkcnG6Q</title>
<path fill="none" stroke="black" d="M5045,-374C5059.5,-374 5095.23,-374 5126.87,-374"/>
<polygon fill="black" stroke="black" points="5126.78,-377.5 5136.78,-374 5126.78,-370.5 5126.78,-377.5"/>
</g>
</g>
</svg>