<svg xmlns="http://www.w3.org/2000/svg" xmlns:xlink="http://www.w3.org/1999/xlink" width="4748pt" height="2083pt" viewBox="0.00 0.00 4748.00 2083.00">
<g id="graph0" class="graph" transform="scale(1 1) rotate(0) translate(93.6 1989.6)">
<polygon fill="white" stroke="none" points="-93.6,93.6 -93.6,-1989.6 4654.54,-1989.6 4654.54,93.6 -93.6,93.6"/>
<!-- _KWHDYErNEfGV4fLbNWG3tQ -->
<g id="node1" class="node">
<title>_KWHDYErNEfGV4fLbNWG3tQ</title>
<ellipse fill="none" stroke="black" cx="74.14" cy="-946" rx="46.8" ry="46.8"/>
<text xml:space="preserve" text-anchor="middle" x="74.14" y="-941.8" font-family="Times,serif" font-size="14.00">postgis + postgres</text>
<text xml:space="preserve" text-anchor="middle" x="13.67" y="-886.6" font-family="Times,serif" font-size="14.00">M=1</text>
</g>
<!-- _KWHqcUrNEfGV4fLbNWG3tQ -->
<g id="node25" class="node">
<title>_KWHqcUrNEfGV4fLbNWG3tQ</title>
<polygon fill="black" stroke="black" points="229.34,-803.8 214.94,-803.8 214.94,-710.2 229.34,-710.2 229.34,-803.8"/>
</g>
<!-- _KWHDYErNEfGV4fLbNWG3tQ&#45;&gt;_KWHqcUrNEfGV4fLbNWG3tQ -->
<g id="edge44" class="edge">
<title>_KWHDYErNEfGV4fLbNWG3tQ-&gt;_KWHqcUrNEfGV4fLbNWG3tQ</title>
<path fill="none" stroke="black" d="M103.64,-909.11C134.95,-868.57 183.94,-805.17 207.53,-774.62"/>
<polygon fill="black" stroke="black" points="210.23,-776.85 213.58,-766.8 204.69,-772.57 210.23,-776.85"/>
</g>
<!-- _KWHDYUrNEfGV4fLbNWG3tQ -->
<g id="node2" class="node">
<title>_KWHDYUrNEfGV4fLbNWG3tQ</title>
<ellipse fill="none" stroke="black" cx="1850.14" cy="-1136" rx="46.8" ry="46.8"/>
<text xml:space="preserve" text-anchor="middle" x="1850.14" y="-1131.8" font-family="Times,serif" font-size="14.00">Express.js</text>
<text xml:space="preserve" text-anchor="middle" x="1789.67" y="-1076.6" font-family="Times,serif" font-size="14.00">M=4</text>
</g>
<!-- _KWHqfUrNEfGV4fLbNWG3tQ -->
<g id="node29" class="node">
<title>_KWHqfUrNEfGV4fLbNWG3tQ</title>
<polygon fill="black" stroke="black" points="2005.34,-791.8 1990.94,-791.8 1990.94,-698.2 2005.34,-698.2 2005.34,-791.8"/>
</g>
<!-- _KWHDYUrNEfGV4fLbNWG3tQ&#45;&gt;_KWHqfUrNEfGV4fLbNWG3tQ -->
<g id="edge54" class="edge">
<title>_KWHDYUrNEfGV4fLbNWG3tQ-&gt;_KWHqfUrNEfGV4fLbNWG3tQ</title>
<path fill="none" stroke="black" d="M1867.47,-1092.29C1897.64,-1011.47 1961.37,-840.8 1986.57,-773.32"/>
<polygon fill="black" stroke="black" points="1989.79,-774.69 1990.01,-764.1 1983.24,-772.24 1989.79,-774.69"/>
</g>
<!-- _KWHqgkrNEfGV4fLbNWG3tQ -->
<g id="node37" class="node">
<title>_KWHqgkrNEfGV4fLbNWG3tQ</title>
<polygon fill="black" stroke="black" points="1413.34,-1087.8 1398.94,-1087.8 1398.94,-994.2 1413.34,-994.2 1413.34,-1087.8"/>
</g>
<!-- _KWHDYUrNEfGV4fLbNWG3tQ&#45;&gt;_KWHqgkrNEfGV4fLbNWG3tQ -->
<g id="edge52" class="edge">
<title>_KWHDYUrNEfGV4fLbNWG3tQ-&gt;_KWHqgkrNEfGV4fLbNWG3tQ</title>
<path fill="none" stroke="black" d="M1804.23,-1126.35C1708.71,-1105.82 1488.91,-1058.57 1424.92,-1044.82"/>
<polygon fill="black" stroke="black" points="1425.73,-1041.41 1415.21,-1042.73 1424.26,-1048.26 1425.73,-1041.41"/>
</g>
<!-- _KWHqeErNEfGV4fLbNWG3tQ -->
<g id="node38" class="node">
<title>_KWHqeErNEfGV4fLbNWG3tQ</title>
<polygon fill="black" stroke="black" points="3485.34,-1572.8 3470.94,-1572.8 3470.94,-1479.2 3485.34,-1479.2 3485.34,-1572.8"/>
</g>
<!-- _KWHDYUrNEfGV4fLbNWG3tQ&#45;&gt;_KWHqeErNEfGV4fLbNWG3tQ -->
<g id="edge48" class="edge">
<title>_KWHDYUrNEfGV4fLbNWG3tQ-&gt;_KWHqeErNEfGV4fLbNWG3tQ</title>
<path fill="none" stroke="black" d="M1862.92,-1181.46C1892.07,-1282.32 1977.69,-1516 2145.14,-1516 2145.14,-1516 2145.14,-1516 2739.14,-1516 2932.88,-1516 2981.22,-1523.78 3174.94,-1526 3282.86,-1527.24 3412.46,-1526.49 3459.22,-1526.14"/>
<polygon fill="black" stroke="black" points="3459.06,-1529.64 3469.04,-1526.07 3459.01,-1522.65 3459.06,-1529.64"/>
</g>
<!-- _KV8ERErNEfGV4fLbNWG3tQ -->
<g id="node3" class="node">
<title>_KV8ERErNEfGV4fLbNWG3tQ</title>
<ellipse fill="none" stroke="black" cx="3626.14" cy="-1526" rx="46.8" ry="46.8"/>
<text xml:space="preserve" text-anchor="middle" x="3626.14" y="-1521.8" font-family="Times,serif" font-size="14.00">Es_Dia_Valido</text>
</g>
<!-- _KV8ERUrNEfGV4fLbNWG3tQ -->
<g id="node49" class="node">
<title>_KV8ERUrNEfGV4fLbNWG3tQ</title>
<polygon fill="none" stroke="black" points="3781.34,-1572.8 3766.94,-1572.8 3766.94,-1479.2 3781.34,-1479.2 3781.34,-1572.8"/>
<text xml:space="preserve" text-anchor="middle" x="3745.3" y="-1466.6" font-family="Times,serif" font-size="14.00">t=100.0</text>
<text xml:space="preserve" text-anchor="middle" x="3745.3" y="-1449.8" font-family="Times,serif" font-size="14.00">infServ</text>
</g>
<!-- _KV8ERErNEfGV4fLbNWG3tQ&#45;&gt;_KV8ERUrNEfGV4fLbNWG3tQ -->
<g id="edge53" class="edge">
<title>_KV8ERErNEfGV4fLbNWG3tQ-&gt;_KV8ERUrNEfGV4fLbNWG3tQ</title>
<path fill="none" stroke="black" d="M3673.34,-1526C3701.17,-1526 3735.03,-1526 3755.29,-1526"/>
<polygon fill="black" stroke="black" points="3755.17,-1529.5 3765.17,-1526 3755.17,-1522.5 3755.17,-1529.5"/>
</g>
<!-- _KV0vg0rNEfGV4fLbNWG3tQ -->
<g id="node4" class="node">
<title>_KV0vg0rNEfGV4fLbNWG3tQ</title>
<ellipse fill="none" stroke="black" cx="666.14" cy="-1135" rx="46.8" ry="46.8"/>
</g>
<!-- _KWF1QUrNEfGV4fLbNWG3tQ -->
<g id="node27" class="node">
<title>_KWF1QUrNEfGV4fLbNWG3tQ</title>
<polygon fill="black" stroke="black" points="821.34,-1181.8 806.94,-1181.8 806.94,-1088.2 821.34,-1088.2 821.34,-1181.8"/>
<text xml:space="preserve" text-anchor="middle" x="790.75" y="-1075.6" font-family="Times,serif" font-size="14.00">p=0.9</text>
</g>
<!-- _KV0vg0rNEfGV4fLbNWG3tQ&#45;&gt;_KWF1QUrNEfGV4fLbNWG3tQ -->
<g id="edge60" class="edge">
<title>_KV0vg0rNEfGV4fLbNWG3tQ-&gt;_KWF1QUrNEfGV4fLbNWG3tQ</title>
<path fill="none" stroke="black" d="M713.34,-1135C741.17,-1135 775.03,-1135 795.29,-1135"/>
<polygon fill="black" stroke="black" points="795.17,-1138.5 805.17,-1135 795.17,-1131.5 795.17,-1138.5"/>
</g>
<!-- _KWEAE0rNEfGV4fLbNWG3tQ -->
<g id="node39" class="node">
<title>_KWEAE0rNEfGV4fLbNWG3tQ</title>
<polygon fill="black" stroke="black" points="821.34,-1369.8 806.94,-1369.8 806.94,-1276.2 821.34,-1276.2 821.34,-1369.8"/>
<text xml:space="preserve" text-anchor="middle" x="790.75" y="-1263.6" font-family="Times,serif" font-size="14.00">p=0.1</text>
</g>
<!-- _KV0vg0rNEfGV4fLbNWG3tQ&#45;&gt;_KWEAE0rNEfGV4fLbNWG3tQ -->
<g id="edge50" class="edge">
<title>_KV0vg0rNEfGV4fLbNWG3tQ-&gt;_KWEAE0rNEfGV4fLbNWG3tQ</title>
<path fill="none" stroke="black" d="M695.64,-1171.69C726.95,-1212.02 775.94,-1275.09 799.53,-1305.48"/>
<polygon fill="black" stroke="black" points="796.68,-1307.5 805.57,-1313.25 802.2,-1303.21 796.68,-1307.5"/>
</g>
<!-- _KWHqfErNEfGV4fLbNWG3tQ -->
<g id="node5" class="node">
<title>_KWHqfErNEfGV4fLbNWG3tQ</title>
<ellipse fill="none" stroke="black" cx="1850.14" cy="-733" rx="46.8" ry="46.8"/>
</g>
<!-- _KWHqfErNEfGV4fLbNWG3tQ&#45;&gt;_KWHqfUrNEfGV4fLbNWG3tQ -->
<g id="edge33" class="edge">
<title>_KWHqfErNEfGV4fLbNWG3tQ-&gt;_KWHqfUrNEfGV4fLbNWG3tQ</title>
<path fill="none" stroke="black" d="M1896.94,-736.76C1924.79,-739.05 1958.82,-741.85 1979.19,-743.52"/>
<polygon fill="black" stroke="black" points="1978.88,-747.01 1989.13,-744.34 1979.46,-740.03 1978.88,-747.01"/>
</g>
<!-- _KV8rVUrNEfGV4fLbNWG3tQ -->
<g id="node6" class="node">
<title>_KV8rVUrNEfGV4fLbNWG3tQ</title>
<ellipse fill="none" stroke="black" cx="4218.14" cy="-1620" rx="46.8" ry="46.8"/>
<text xml:space="preserve" text-anchor="middle" x="4218.14" y="-1615.8" font-family="Times,serif" font-size="14.00">Reservas_Dia</text>
</g>
<!-- _KV8rVkrNEfGV4fLbNWG3tQ -->
<g id="node46" class="node">
<title>_KV8rVkrNEfGV4fLbNWG3tQ</title>
<polygon fill="none" stroke="black" points="4373.34,-1666.8 4358.94,-1666.8 4358.94,-1573.2 4373.34,-1573.2 4373.34,-1666.8"/>
<text xml:space="preserve" text-anchor="middle" x="4323.3" y="-1560.6" font-family="Times,serif" font-size="14.00">t=11.764706</text>
<text xml:space="preserve" text-anchor="middle" x="4323.3" y="-1543.8" font-family="Times,serif" font-size="14.00">infServ</text>
</g>
<!-- _KV8rVUrNEfGV4fLbNWG3tQ&#45;&gt;_KV8rVkrNEfGV4fLbNWG3tQ -->
<g id="edge47" class="edge">
<title>_KV8rVUrNEfGV4fLbNWG3tQ-&gt;_KV8rVkrNEfGV4fLbNWG3tQ</title>
<path fill="none" stroke="black" d="M4265.34,-1620C4293.17,-1620 4327.03,-1620 4347.29,-1620"/>
<polygon fill="black" stroke="black" points="4347.17,-1623.5 4357.17,-1620 4347.17,-1616.5 4347.17,-1623.5"/>
</g>
<!-- _KV8rVErNEfGV4fLbNWG3tQ -->
<g id="node7" class="node">
<title>_KV8rVErNEfGV4fLbNWG3tQ</title>
<ellipse fill="none" stroke="black" cx="2442.14" cy="-745" rx="46.8" ry="46.8"/>
</g>
<!-- _KWA8x0rNEfGV4fLbNWG3tQ -->
<g id="node30" class="node">
<title>_KWA8x0rNEfGV4fLbNWG3tQ</title>
<polygon fill="black" stroke="black" points="2597.34,-615.8 2582.94,-615.8 2582.94,-522.2 2597.34,-522.2 2597.34,-615.8"/>
<text xml:space="preserve" text-anchor="middle" x="2566.75" y="-509.6" font-family="Times,serif" font-size="14.00">p=0.1</text>
</g>
<!-- _KV8rVErNEfGV4fLbNWG3tQ&#45;&gt;_KWA8x0rNEfGV4fLbNWG3tQ -->
<g id="edge12" class="edge">
<title>_KV8rVErNEfGV4fLbNWG3tQ-&gt;_KWA8x0rNEfGV4fLbNWG3tQ</title>
<path fill="none" stroke="black" d="M2472.69,-709.38C2503.99,-671.65 2552.06,-613.7 2575.44,-585.53"/>
<polygon fill="black" stroke="black" points="2577.95,-587.98 2581.64,-578.05 2572.56,-583.51 2577.95,-587.98"/>
</g>
<!-- _KWBj00rNEfGV4fLbNWG3tQ -->
<g id="node42" class="node">
<title>_KWBj00rNEfGV4fLbNWG3tQ</title>
<polygon fill="black" stroke="black" points="2597.34,-803.8 2582.94,-803.8 2582.94,-710.2 2597.34,-710.2 2597.34,-803.8"/>
<text xml:space="preserve" text-anchor="middle" x="2566.75" y="-697.6" font-family="Times,serif" font-size="14.00">p=0.9</text>
</g>
<!-- _KV8rVErNEfGV4fLbNWG3tQ&#45;&gt;_KWBj00rNEfGV4fLbNWG3tQ -->
<g id="edge24" class="edge">
<title>_KV8rVErNEfGV4fLbNWG3tQ-&gt;_KWBj00rNEfGV4fLbNWG3tQ</title>
<path fill="none" stroke="black" d="M2488.94,-748.76C2516.79,-751.05 2550.82,-753.85 2571.19,-755.52"/>
<polygon fill="black" stroke="black" points="2570.88,-759.01 2581.13,-756.34 2571.46,-752.03 2570.88,-759.01"/>
</g>
<!-- _KWHqcErNEfGV4fLbNWG3tQ -->
<g id="node8" class="node">
<title>_KWHqcErNEfGV4fLbNWG3tQ</title>
<ellipse fill="none" stroke="black" cx="4514.14" cy="-851" rx="46.8" ry="46.8"/>
</g>
<!-- _KWHqcErNEfGV4fLbNWG3tQ&#45;&gt;_KWHqcUrNEfGV4fLbNWG3tQ -->
<g id="edge30" class="edge">
<title>_KWHqcErNEfGV4fLbNWG3tQ-&gt;_KWHqcUrNEfGV4fLbNWG3tQ</title>
<path fill="none" stroke="black" d="M4507.42,-804.34C4484.31,-626.34 4390.79,0 4219.14,0 517.14,0 517.14,0 517.14,0 365.71,0 261.41,-533.02 231.77,-704.52"/>
<polygon fill="black" stroke="black" points="228.33,-703.82 230.1,-714.27 235.23,-705.01 228.33,-703.82"/>
</g>
<!-- _KV5A8UrNEfGV4fLbNWG3tQ -->
<g id="node9" class="node">
<title>_KV5A8UrNEfGV4fLbNWG3tQ</title>
<ellipse fill="none" stroke="black" cx="3922.14" cy="-1526" rx="46.8" ry="46.8"/>
</g>
<!-- _KWEnI0rNEfGV4fLbNWG3tQ -->
<g id="node36" class="node">
<title>_KWEnI0rNEfGV4fLbNWG3tQ</title>
<polygon fill="black" stroke="black" points="4077.34,-1666.8 4062.94,-1666.8 4062.94,-1573.2 4077.34,-1573.2 4077.34,-1666.8"/>
<text xml:space="preserve" text-anchor="middle" x="4046.75" y="-1560.6" font-family="Times,serif" font-size="14.00">p=0.7</text>
</g>
<!-- _KV5A8UrNEfGV4fLbNWG3tQ&#45;&gt;_KWEnI0rNEfGV4fLbNWG3tQ -->
<g id="edge21" class="edge">
<title>_KV5A8UrNEfGV4fLbNWG3tQ-&gt;_KWEnI0rNEfGV4fLbNWG3tQ</title>
<path fill="none" stroke="black" d="M3961.89,-1550.94C3991.66,-1570.11 4031.27,-1595.61 4053.06,-1609.65"/>
<polygon fill="black" stroke="black" points="4050.88,-1612.4 4061.18,-1614.87 4054.66,-1606.52 4050.88,-1612.4"/>
</g>
<!-- _KWBj30rNEfGV4fLbNWG3tQ -->
<g id="node41" class="node">
<title>_KWBj30rNEfGV4fLbNWG3tQ</title>
<polygon fill="black" stroke="black" points="4077.34,-1478.8 4062.94,-1478.8 4062.94,-1385.2 4077.34,-1385.2 4077.34,-1478.8"/>
<text xml:space="preserve" text-anchor="middle" x="4046.75" y="-1372.6" font-family="Times,serif" font-size="14.00">p=0.3</text>
</g>
<!-- _KV5A8UrNEfGV4fLbNWG3tQ&#45;&gt;_KWBj30rNEfGV4fLbNWG3tQ -->
<g id="edge26" class="edge">
<title>_KV5A8UrNEfGV4fLbNWG3tQ-&gt;_KWBj30rNEfGV4fLbNWG3tQ</title>
<path fill="none" stroke="black" d="M3961.89,-1501.06C3991.66,-1481.89 4031.27,-1456.39 4053.06,-1442.35"/>
<polygon fill="black" stroke="black" points="4054.66,-1445.48 4061.18,-1437.13 4050.88,-1439.6 4054.66,-1445.48"/>
</g>
<!-- _KWLU0ErNEfGV4fLbNWG3tQ -->
<g id="node10" class="node">
<title>_KWLU0ErNEfGV4fLbNWG3tQ</title>
<ellipse fill="none" stroke="black" cx="2146.14" cy="-284" rx="46.8" ry="46.8"/>
<text xml:space="preserve" text-anchor="middle" x="2146.14" y="-279.8" font-family="Times,serif" font-size="14.00">Users</text>
</g>
<!-- _KV62JUrNEfGV4fLbNWG3tQ -->
<g id="node40" class="node">
<title>_KV62JUrNEfGV4fLbNWG3tQ</title>
<polygon fill="black" stroke="black" points="3189.34,-331.8 3174.94,-331.8 3174.94,-238.2 3189.34,-238.2 3189.34,-331.8"/>
</g>
<!-- _KWLU0ErNEfGV4fLbNWG3tQ&#45;&gt;_KV62JUrNEfGV4fLbNWG3tQ -->
<g id="edge39" class="edge">
<title>_KWLU0ErNEfGV4fLbNWG3tQ-&gt;_KV62JUrNEfGV4fLbNWG3tQ</title>
<path fill="none" stroke="black" d="M2187.7,-262.2C2243.24,-234.43 2346.83,-190 2441.14,-190 2441.14,-190 2441.14,-190 2887.14,-190 2997.7,-190 3120.8,-251.58 3164.59,-275.58"/>
<polygon fill="black" stroke="black" points="3162.81,-278.59 3173.24,-280.42 3166.22,-272.48 3162.81,-278.59"/>
</g>
<!-- _KWHqgUrNEfGV4fLbNWG3tQ -->
<g id="node11" class="node">
<title>_KWHqgUrNEfGV4fLbNWG3tQ</title>
<ellipse fill="none" stroke="black" cx="1258.14" cy="-1041" rx="46.8" ry="46.8"/>
</g>
<!-- _KWHqgUrNEfGV4fLbNWG3tQ&#45;&gt;_KWHqgkrNEfGV4fLbNWG3tQ -->
<g id="edge29" class="edge">
<title>_KWHqgUrNEfGV4fLbNWG3tQ-&gt;_KWHqgkrNEfGV4fLbNWG3tQ</title>
<path fill="none" stroke="black" d="M1305.34,-1041C1333.17,-1041 1367.03,-1041 1387.29,-1041"/>
<polygon fill="black" stroke="black" points="1387.17,-1044.5 1397.17,-1041 1387.17,-1037.5 1387.17,-1044.5"/>
</g>
<!-- _KV62JErNEfGV4fLbNWG3tQ -->
<g id="node12" class="node">
<title>_KV62JErNEfGV4fLbNWG3tQ</title>
<ellipse fill="none" stroke="black" cx="3034.14" cy="-380" rx="46.8" ry="46.8"/>
</g>
<!-- _KV62JErNEfGV4fLbNWG3tQ&#45;&gt;_KV62JUrNEfGV4fLbNWG3tQ -->
<g id="edge38" class="edge">
<title>_KV62JErNEfGV4fLbNWG3tQ-&gt;_KV62JUrNEfGV4fLbNWG3tQ</title>
<path fill="none" stroke="black" d="M3073.89,-354.79C3103.66,-335.42 3143.27,-309.64 3165.06,-295.46"/>
<polygon fill="black" stroke="black" points="3166.71,-298.57 3173.18,-290.18 3162.89,-292.7 3166.71,-298.57"/>
</g>
<!-- _KV0vh0rNEfGV4fLbNWG3tQ -->
<g id="node13" class="node">
<title>_KV0vh0rNEfGV4fLbNWG3tQ</title>
<ellipse fill="none" stroke="black" cx="2146.14" cy="-745" rx="46.8" ry="46.8"/>
<text xml:space="preserve" text-anchor="middle" x="2146.14" y="-740.8" font-family="Times,serif" font-size="14.00">Validar_Credenciales</text>
</g>
<!-- _KV0viErNEfGV4fLbNWG3tQ -->
<g id="node45" class="node">
<title>_KV0viErNEfGV4fLbNWG3tQ</title>
<polygon fill="none" stroke="black" points="2301.34,-791.8 2286.94,-791.8 2286.94,-698.2 2301.34,-698.2 2301.34,-791.8"/>
<text xml:space="preserve" text-anchor="middle" x="2251.3" y="-685.6" font-family="Times,serif" font-size="14.00">t=33.333332</text>
<text xml:space="preserve" text-anchor="middle" x="2251.3" y="-668.8" font-family="Times,serif" font-size="14.00">infServ</text>
</g>
<!-- _KV0vh0rNEfGV4fLbNWG3tQ&#45;&gt;_KV0viErNEfGV4fLbNWG3tQ -->
<g id="edge11" class="edge">
<title>_KV0vh0rNEfGV4fLbNWG3tQ-&gt;_KV0viErNEfGV4fLbNWG3tQ</title>
<path fill="none" stroke="black" d="M2193.34,-745C2221.17,-745 2255.03,-745 2275.29,-745"/>
<polygon fill="black" stroke="black" points="2275.17,-748.5 2285.17,-745 2275.17,-741.5 2275.17,-748.5"/>
</g>
<!-- _KWHqd0rNEfGV4fLbNWG3tQ -->
<g id="node14" class="node">
<title>_KWHqd0rNEfGV4fLbNWG3tQ</title>
<ellipse fill="none" stroke="black" cx="3330.14" cy="-1432" rx="46.8" ry="46.8"/>
</g>
<!-- _KWHqd0rNEfGV4fLbNWG3tQ&#45;&gt;_KWHqeErNEfGV4fLbNWG3tQ -->
<g id="edge2" class="edge">
<title>_KWHqd0rNEfGV4fLbNWG3tQ-&gt;_KWHqeErNEfGV4fLbNWG3tQ</title>
<path fill="none" stroke="black" d="M3369.89,-1456.94C3399.66,-1476.11 3439.27,-1501.61 3461.06,-1515.65"/>
<polygon fill="black" stroke="black" points="3458.88,-1518.4 3469.18,-1520.87 3462.66,-1512.52 3458.88,-1518.4"/>
</g>
<!-- _KV8rWErNEfGV4fLbNWG3tQ -->
<g id="node15" class="node">
<title>_KV8rWErNEfGV4fLbNWG3tQ</title>
<ellipse fill="none" stroke="black" cx="1554.14" cy="-947" rx="46.8" ry="46.8"/>
<text xml:space="preserve" text-anchor="middle" x="1554.14" y="-942.8" font-family="Times,serif" font-size="14.00">Estructurar_Datos</text>
</g>
<!-- _KV8rWUrNEfGV4fLbNWG3tQ -->
<g id="node44" class="node">
<title>_KV8rWUrNEfGV4fLbNWG3tQ</title>
<polygon fill="none" stroke="black" points="1709.34,-993.8 1694.94,-993.8 1694.94,-900.2 1709.34,-900.2 1709.34,-993.8"/>
<text xml:space="preserve" text-anchor="middle" x="1659.3" y="-887.6" font-family="Times,serif" font-size="14.00">t=14.285714</text>
<text xml:space="preserve" text-anchor="middle" x="1659.3" y="-870.8" font-family="Times,serif" font-size="14.00">infServ</text>
</g>
<!-- _KV8rWErNEfGV4fLbNWG3tQ&#45;&gt;_KV8rWUrNEfGV4fLbNWG3tQ -->
<g id="edge20" class="edge">
<title>_KV8rWErNEfGV4fLbNWG3tQ-&gt;_KV8rWUrNEfGV4fLbNWG3tQ</title>
<path fill="none" stroke="black" d="M1601.34,-947C1629.17,-947 1663.03,-947 1683.29,-947"/>
<polygon fill="black" stroke="black" points="1683.17,-950.5 1693.17,-947 1683.17,-943.5 1683.17,-950.5"/>
</g>
<!-- _KWA8xErNEfGV4fLbNWG3tQ -->
<g id="node16" class="node">
<title>_KWA8xErNEfGV4fLbNWG3tQ</title>
<ellipse fill="none" stroke="black" cx="2738.14" cy="-569" rx="46.8" ry="46.8"/>
<text xml:space="preserve" text-anchor="middle" x="2738.14" y="-564.8" font-family="Times,serif" font-size="14.00">Inv_Cred</text>
</g>
<!-- _KWA8xUrNEfGV4fLbNWG3tQ -->
<g id="node26" class="node">
<title>_KWA8xUrNEfGV4fLbNWG3tQ</title>
<polygon fill="black" stroke="black" points="2893.34,-615.8 2878.94,-615.8 2878.94,-522.2 2893.34,-522.2 2893.34,-615.8"/>
</g>
<!-- _KWA8xErNEfGV4fLbNWG3tQ&#45;&gt;_KWA8xUrNEfGV4fLbNWG3tQ -->
<g id="edge28" class="edge">
<title>_KWA8xErNEfGV4fLbNWG3tQ-&gt;_KWA8xUrNEfGV4fLbNWG3tQ</title>
<path fill="none" stroke="black" d="M2785.34,-569C2813.17,-569 2847.03,-569 2867.29,-569"/>
<polygon fill="black" stroke="black" points="2867.17,-572.5 2877.17,-569 2867.17,-565.5 2867.17,-572.5"/>
</g>
<!-- _KV62J0rNEfGV4fLbNWG3tQ -->
<g id="node17" class="node">
<title>_KV62J0rNEfGV4fLbNWG3tQ</title>
<ellipse fill="none" stroke="black" cx="962.14" cy="-1135" rx="46.8" ry="46.8"/>
<text xml:space="preserve" text-anchor="middle" x="962.14" y="-1130.8" font-family="Times,serif" font-size="14.00">Acierto</text>
</g>
<!-- _KV62KErNEfGV4fLbNWG3tQ -->
<g id="node32" class="node">
<title>_KV62KErNEfGV4fLbNWG3tQ</title>
<polygon fill="black" stroke="black" points="1117.34,-1087.8 1102.94,-1087.8 1102.94,-994.2 1117.34,-994.2 1117.34,-1087.8"/>
</g>
<!-- _KV62J0rNEfGV4fLbNWG3tQ&#45;&gt;_KV62KErNEfGV4fLbNWG3tQ -->
<g id="edge25" class="edge">
<title>_KV62J0rNEfGV4fLbNWG3tQ-&gt;_KV62KErNEfGV4fLbNWG3tQ</title>
<path fill="none" stroke="black" d="M1001.89,-1110.06C1031.66,-1090.89 1071.27,-1065.39 1093.06,-1051.35"/>
<polygon fill="black" stroke="black" points="1094.66,-1054.48 1101.18,-1046.13 1090.88,-1048.6 1094.66,-1054.48"/>
</g>
<!-- _KV8rUUrNEfGV4fLbNWG3tQ -->
<g id="node18" class="node">
<title>_KV8rUUrNEfGV4fLbNWG3tQ</title>
<ellipse fill="none" stroke="black" cx="1258.14" cy="-1512" rx="46.8" ry="46.8"/>
<text xml:space="preserve" text-anchor="middle" x="1258.14" y="-1507.8" font-family="Times,serif" font-size="14.00">Mostrar_Error</text>
</g>
<!-- _KV8rUkrNEfGV4fLbNWG3tQ -->
<g id="node34" class="node">
<title>_KV8rUkrNEfGV4fLbNWG3tQ</title>
<polygon fill="black" stroke="black" points="1561.34,-1656.8 1546.94,-1656.8 1546.94,-1563.2 1561.34,-1563.2 1561.34,-1656.8"/>
</g>
<!-- _KV8rUUrNEfGV4fLbNWG3tQ&#45;&gt;_KV8rUkrNEfGV4fLbNWG3tQ -->
<g id="edge22" class="edge">
<title>_KV8rUUrNEfGV4fLbNWG3tQ-&gt;_KV8rUkrNEfGV4fLbNWG3tQ</title>
<path fill="none" stroke="black" d="M1302.84,-1526.57C1368.79,-1548.55 1490.82,-1589.23 1535.86,-1604.24"/>
<polygon fill="black" stroke="black" points="1534.59,-1607.5 1545.18,-1607.35 1536.8,-1600.86 1534.59,-1607.5"/>
</g>
<!-- _KV5A8krNEfGV4fLbNWG3tQ -->
<g id="node19" class="node">
<title>_KV5A8krNEfGV4fLbNWG3tQ</title>
<ellipse fill="none" stroke="black" cx="2738.14" cy="-757" rx="46.8" ry="46.8"/>
<text xml:space="preserve" text-anchor="middle" x="2738.14" y="-752.8" font-family="Times,serif" font-size="14.00">Validado</text>
</g>
<!-- _KV5A80rNEfGV4fLbNWG3tQ -->
<g id="node43" class="node">
<title>_KV5A80rNEfGV4fLbNWG3tQ</title>
<polygon fill="black" stroke="black" points="2893.34,-1372.8 2878.94,-1372.8 2878.94,-1279.2 2893.34,-1279.2 2893.34,-1372.8"/>
</g>
<!-- _KV5A8krNEfGV4fLbNWG3tQ&#45;&gt;_KV5A80rNEfGV4fLbNWG3tQ -->
<g id="edge1" class="edge">
<title>_KV5A8krNEfGV4fLbNWG3tQ-&gt;_KV5A80rNEfGV4fLbNWG3tQ</title>
<path fill="none" stroke="black" d="M2750.72,-802.12C2778.75,-911.35 2849.83,-1188.36 2875.61,-1288.86"/>
<polygon fill="black" stroke="black" points="2872.21,-1289.66 2878.08,-1298.48 2878.99,-1287.92 2872.21,-1289.66"/>
</g>
<!-- _KV62IUrNEfGV4fLbNWG3tQ -->
<g id="node20" class="node">
<title>_KV62IUrNEfGV4fLbNWG3tQ</title>
<ellipse fill="none" stroke="black" cx="4218.14" cy="-1432" rx="46.8" ry="46.8"/>
<text xml:space="preserve" text-anchor="middle" x="4218.14" y="-1427.8" font-family="Times,serif" font-size="14.00">Dia_Invalido</text>
</g>
<!-- _KV62IkrNEfGV4fLbNWG3tQ -->
<g id="node33" class="node">
<title>_KV62IkrNEfGV4fLbNWG3tQ</title>
<polygon fill="black" stroke="black" points="4373.34,-1289.8 4358.94,-1289.8 4358.94,-1196.2 4373.34,-1196.2 4373.34,-1289.8"/>
</g>
<!-- _KV62IUrNEfGV4fLbNWG3tQ&#45;&gt;_KV62IkrNEfGV4fLbNWG3tQ -->
<g id="edge23" class="edge">
<title>_KV62IUrNEfGV4fLbNWG3tQ-&gt;_KV62IkrNEfGV4fLbNWG3tQ</title>
<path fill="none" stroke="black" d="M4247.64,-1395.11C4278.95,-1354.57 4327.94,-1291.17 4351.53,-1260.62"/>
<polygon fill="black" stroke="black" points="4354.23,-1262.85 4357.58,-1252.8 4348.69,-1258.57 4354.23,-1262.85"/>
</g>
<!-- _KV8EQUrNEfGV4fLbNWG3tQ -->
<g id="node21" class="node">
<title>_KV8EQUrNEfGV4fLbNWG3tQ</title>
<ellipse fill="none" stroke="black" cx="3034.14" cy="-1338" rx="46.8" ry="46.8"/>
<text xml:space="preserve" text-anchor="middle" x="3034.14" y="-1333.8" font-family="Times,serif" font-size="14.00">Consultar_Reservas</text>
</g>
<!-- _KV8EQkrNEfGV4fLbNWG3tQ -->
<g id="node35" class="node">
<title>_KV8EQkrNEfGV4fLbNWG3tQ</title>
<polygon fill="black" stroke="black" points="3189.34,-1478.8 3174.94,-1478.8 3174.94,-1385.2 3189.34,-1385.2 3189.34,-1478.8"/>
</g>
<!-- _KV8EQUrNEfGV4fLbNWG3tQ&#45;&gt;_KV8EQkrNEfGV4fLbNWG3tQ -->
<g id="edge32" class="edge">
<title>_KV8EQUrNEfGV4fLbNWG3tQ-&gt;_KV8EQkrNEfGV4fLbNWG3tQ</title>
<path fill="none" stroke="black" d="M3073.89,-1362.94C3103.66,-1382.11 3143.27,-1407.61 3165.06,-1421.65"/>
<polygon fill="black" stroke="black" points="3162.88,-1424.4 3173.18,-1426.87 3166.66,-1418.52 3162.88,-1424.4"/>
</g>
<!-- _KWA8wUrNEfGV4fLbNWG3tQ -->
<g id="node22" class="node">
<title>_KWA8wUrNEfGV4fLbNWG3tQ</title>
<ellipse fill="none" stroke="black" cx="962.14" cy="-1323" rx="46.8" ry="46.8"/>
<text xml:space="preserve" text-anchor="middle" x="962.14" y="-1318.8" font-family="Times,serif" font-size="14.00">FAllo</text>
</g>
<!-- _KWA8wkrNEfGV4fLbNWG3tQ -->
<g id="node28" class="node">
<title>_KWA8wkrNEfGV4fLbNWG3tQ</title>
<polygon fill="black" stroke="black" points="1117.34,-1558.8 1102.94,-1558.8 1102.94,-1465.2 1117.34,-1465.2 1117.34,-1558.8"/>
</g>
<!-- _KWA8wUrNEfGV4fLbNWG3tQ&#45;&gt;_KWA8wkrNEfGV4fLbNWG3tQ -->
<g id="edge45" class="edge">
<title>_KWA8wUrNEfGV4fLbNWG3tQ-&gt;_KWA8wkrNEfGV4fLbNWG3tQ</title>
<path fill="none" stroke="black" d="M991.64,-1359.89C1022.95,-1400.43 1071.94,-1463.83 1095.53,-1494.38"/>
<polygon fill="black" stroke="black" points="1092.69,-1496.43 1101.58,-1502.2 1098.23,-1492.15 1092.69,-1496.43"/>
</g>
<!-- _KV0vhErNEfGV4fLbNWG3tQ -->
<g id="node23" class="node">
<title>_KV0vhErNEfGV4fLbNWG3tQ</title>
<ellipse fill="none" stroke="black" cx="1850.14" cy="-545" rx="46.8" ry="46.8"/>
<text xml:space="preserve" text-anchor="middle" x="1850.14" y="-540.8" font-family="Times,serif" font-size="14.00">Mostrar_Reservas</text>
</g>
<!-- _KV0vhUrNEfGV4fLbNWG3tQ -->
<g id="node31" class="node">
<title>_KV0vhUrNEfGV4fLbNWG3tQ</title>
<polygon fill="black" stroke="black" points="2301.34,-502.8 2286.94,-502.8 2286.94,-409.2 2301.34,-409.2 2301.34,-502.8"/>
</g>
<!-- _KV0vhErNEfGV4fLbNWG3tQ&#45;&gt;_KV0vhUrNEfGV4fLbNWG3tQ -->
<g id="edge3" class="edge">
<title>_KV0vhErNEfGV4fLbNWG3tQ-&gt;_KV0vhUrNEfGV4fLbNWG3tQ</title>
<path fill="none" stroke="black" d="M1896.37,-535.89C1992.09,-516.62 2211.62,-472.42 2275.44,-459.56"/>
<polygon fill="black" stroke="black" points="2276,-463.02 2285.11,-457.62 2274.62,-456.16 2276,-463.02"/>
</g>
<!-- _KV5A9UrNEfGV4fLbNWG3tQ -->
<g id="node24" class="node">
<title>_KV5A9UrNEfGV4fLbNWG3tQ</title>
<ellipse fill="none" stroke="black" cx="370.14" cy="-757" rx="46.8" ry="46.8"/>
<text xml:space="preserve" text-anchor="middle" x="370.14" y="-752.8" font-family="Times,serif" font-size="14.00">Consultar_Reservas_Dia_BD</text>
</g>
<!-- _KV5A9krNEfGV4fLbNWG3tQ -->
<g id="node47" class="node">
<title>_KV5A9krNEfGV4fLbNWG3tQ</title>
<polygon fill="none" stroke="black" points="525.34,-1181.8 510.94,-1181.8 510.94,-1088.2 525.34,-1088.2 525.34,-1181.8"/>
<text xml:space="preserve" text-anchor="middle" x="475.3" y="-1075.6" font-family="Times,serif" font-size="14.00">t=22.222221</text>
<text xml:space="preserve" text-anchor="middle" x="475.3" y="-1058.8" font-family="Times,serif" font-size="14.00">infServ</text>
</g>
<!-- _KV5A9UrNEfGV4fLbNWG3tQ&#45;&gt;_KV5A9krNEfGV4fLbNWG3tQ -->
<g id="edge37" class="edge">
<title>_KV5A9UrNEfGV4fLbNWG3tQ-&gt;_KV5A9krNEfGV4fLbNWG3tQ</title>
<path fill="none" stroke="black" d="M388.03,-800.73C418.34,-879.2 481.14,-1041.78 506.34,-1107.02"/>
<polygon fill="black" stroke="black" points="503.04,-1108.2 509.91,-1116.26 509.57,-1105.68 503.04,-1108.2"/>
</g>
<!-- _KWHqcUrNEfGV4fLbNWG3tQ&#45;&gt;_KV5A9UrNEfGV4fLbNWG3tQ -->
<g id="edge19" class="edge">
<title>_KWHqcUrNEfGV4fLbNWG3tQ-&gt;_KV5A9UrNEfGV4fLbNWG3tQ</title>
<path fill="none" stroke="black" d="M229.8,-757C244.3,-757 280.03,-757 311.67,-757"/>
<polygon fill="black" stroke="black" points="311.58,-760.5 321.58,-757 311.58,-753.5 311.58,-760.5"/>
</g>
<!-- _KWA8xUrNEfGV4fLbNWG3tQ&#45;&gt;_KWHDYUrNEfGV4fLbNWG3tQ -->
<g id="edge14" class="edge">
<title>_KWA8xUrNEfGV4fLbNWG3tQ-&gt;_KWHDYUrNEfGV4fLbNWG3tQ</title>
<path fill="none" stroke="black" d="M2879.45,-616.23C2869.85,-677.19 2845.2,-783.43 2784.94,-851 2721.1,-922.6 2687.07,-946 2591.14,-946 2145.14,-946 2145.14,-946 2145.14,-946 2038.2,-946 1939.37,-1035.77 1888.03,-1091.9"/>
<polygon fill="black" stroke="black" points="1885.6,-1089.36 1881.51,-1099.14 1890.8,-1094.05 1885.6,-1089.36"/>
</g>
<!-- _KWA8xUrNEfGV4fLbNWG3tQ&#45;&gt;_KV62JErNEfGV4fLbNWG3tQ -->
<g id="edge40" class="edge">
<title>_KWA8xUrNEfGV4fLbNWG3tQ-&gt;_KV62JErNEfGV4fLbNWG3tQ</title>
<path fill="none" stroke="black" d="M2893.8,-560.39C2911.85,-537.01 2962.78,-471.09 2997.79,-425.76"/>
<polygon fill="black" stroke="black" points="3000.52,-427.96 3003.86,-417.91 2994.98,-423.68 3000.52,-427.96"/>
</g>
<!-- _KWF1QUrNEfGV4fLbNWG3tQ&#45;&gt;_KV62J0rNEfGV4fLbNWG3tQ -->
<g id="edge51" class="edge">
<title>_KWF1QUrNEfGV4fLbNWG3tQ-&gt;_KV62J0rNEfGV4fLbNWG3tQ</title>
<path fill="none" stroke="black" d="M821.8,-1135C836.3,-1135 872.03,-1135 903.67,-1135"/>
<polygon fill="black" stroke="black" points="903.58,-1138.5 913.58,-1135 903.58,-1131.5 903.58,-1138.5"/>
</g>
<!-- _KWA8wkrNEfGV4fLbNWG3tQ&#45;&gt;_KWHDYErNEfGV4fLbNWG3tQ -->
<g id="edge56" class="edge">
<title>_KWA8wkrNEfGV4fLbNWG3tQ-&gt;_KWHDYErNEfGV4fLbNWG3tQ</title>
<path fill="none" stroke="black" d="M1102.73,-1512C1071.31,-1512 930.5,-1512 815.14,-1512 369.14,-1512 369.14,-1512 369.14,-1512 141.93,-1512 90.07,-1148.37 78.44,-1004.03"/>
<polygon fill="black" stroke="black" points="81.95,-1004.01 77.7,-994.31 74.97,-1004.55 81.95,-1004.01"/>
</g>
<!-- _KWA8wkrNEfGV4fLbNWG3tQ&#45;&gt;_KV8rUUrNEfGV4fLbNWG3tQ -->
<g id="edge6" class="edge">
<title>_KWA8wkrNEfGV4fLbNWG3tQ-&gt;_KV8rUUrNEfGV4fLbNWG3tQ</title>
<path fill="none" stroke="black" d="M1117.8,-1512C1132.3,-1512 1168.03,-1512 1199.67,-1512"/>
<polygon fill="black" stroke="black" points="1199.58,-1515.5 1209.58,-1512 1199.58,-1508.5 1199.58,-1515.5"/>
</g>
<!-- _KWHqfUrNEfGV4fLbNWG3tQ&#45;&gt;_KV0vh0rNEfGV4fLbNWG3tQ -->
<g id="edge9" class="edge">
<title>_KWHqfUrNEfGV4fLbNWG3tQ-&gt;_KV0vh0rNEfGV4fLbNWG3tQ</title>
<path fill="none" stroke="black" d="M2005.8,-745C2020.3,-745 2056.03,-745 2087.67,-745"/>
<polygon fill="black" stroke="black" points="2087.58,-748.5 2097.58,-745 2087.58,-741.5 2087.58,-748.5"/>
</g>
<!-- _KWA8x0rNEfGV4fLbNWG3tQ&#45;&gt;_KWA8xErNEfGV4fLbNWG3tQ -->
<g id="edge55" class="edge">
<title>_KWA8x0rNEfGV4fLbNWG3tQ-&gt;_KWA8xErNEfGV4fLbNWG3tQ</title>
<path fill="none" stroke="black" d="M2597.8,-569C2612.3,-569 2648.03,-569 2679.67,-569"/>
<polygon fill="black" stroke="black" points="2679.58,-572.5 2689.58,-569 2679.58,-565.5 2679.58,-572.5"/>
</g>
<!-- _KV0vhUrNEfGV4fLbNWG3tQ&#45;&gt;_KV62JErNEfGV4fLbNWG3tQ -->
<g id="edge15" class="edge">
<title>_KV0vhUrNEfGV4fLbNWG3tQ-&gt;_KV62JErNEfGV4fLbNWG3tQ</title>
<path fill="none" stroke="black" d="M2301.81,-452.93C2333.31,-438.71 2470.52,-380 2589.14,-380 2589.14,-380 2589.14,-380 2739.14,-380 2821.33,-380 2916.44,-380 2975.7,-380"/>
<polygon fill="black" stroke="black" points="2975.55,-383.5 2985.55,-380 2975.55,-376.5 2975.55,-383.5"/>
</g>
<!-- _KV62KErNEfGV4fLbNWG3tQ&#45;&gt;_KWHDYErNEfGV4fLbNWG3tQ -->
<g id="edge7" class="edge">
<title>_KV62KErNEfGV4fLbNWG3tQ-&gt;_KWHDYErNEfGV4fLbNWG3tQ</title>
<path fill="none" stroke="black" d="M1102.56,-1037.16C1071.48,-1019.39 935.83,-946 815.14,-946 369.14,-946 369.14,-946 369.14,-946 286.96,-946 191.85,-946 132.59,-946"/>
<polygon fill="black" stroke="black" points="132.74,-942.5 122.74,-946 132.74,-949.5 132.74,-942.5"/>
</g>
<!-- _KV62KErNEfGV4fLbNWG3tQ&#45;&gt;_KWHqgUrNEfGV4fLbNWG3tQ -->
<g id="edge17" class="edge">
<title>_KV62KErNEfGV4fLbNWG3tQ-&gt;_KWHqgUrNEfGV4fLbNWG3tQ</title>
<path fill="none" stroke="black" d="M1117.8,-1041C1132.3,-1041 1168.03,-1041 1199.67,-1041"/>
<polygon fill="black" stroke="black" points="1199.58,-1044.5 1209.58,-1041 1199.58,-1037.5 1199.58,-1044.5"/>
</g>
<!-- _KV62IkrNEfGV4fLbNWG3tQ&#45;&gt;_KWHDYUrNEfGV4fLbNWG3tQ -->
<g id="edge31" class="edge">
<title>_KV62IkrNEfGV4fLbNWG3tQ-&gt;_KWHDYUrNEfGV4fLbNWG3tQ</title>
<path fill="none" stroke="black" d="M4358.5,-1234.34C4329.17,-1197.17 4206.67,-1053 4071.14,-1053 3329.14,-1053 3329.14,-1053 3329.14,-1053 2999.08,-1053 2921.21,-1136 2591.14,-1136 2145.14,-1136 2145.14,-1136 2145.14,-1136 2062.96,-1136 1967.85,-1136 1908.59,-1136"/>
<polygon fill="black" stroke="black" points="1908.74,-1132.5 1898.74,-1136 1908.74,-1139.5 1908.74,-1132.5"/>
</g>
<!-- _KV62IkrNEfGV4fLbNWG3tQ&#45;&gt;_KV8EQUrNEfGV4fLbNWG3tQ -->
<g id="edge57" class="edge">
<title>_KV62IkrNEfGV4fLbNWG3tQ-&gt;_KV8EQUrNEfGV4fLbNWG3tQ</title>
<path fill="none" stroke="black" d="M4358.73,-1243C4327.31,-1243 4186.5,-1243 4071.14,-1243 3329.14,-1243 3329.14,-1243 3329.14,-1243 3240.27,-1243 3143.28,-1282.79 3085.91,-1310.87"/>
<polygon fill="black" stroke="black" points="3084.42,-1307.7 3077.03,-1315.29 3087.54,-1313.97 3084.42,-1307.7"/>
</g>
<!-- _KV8rUkrNEfGV4fLbNWG3tQ&#45;&gt;_KV8EQUrNEfGV4fLbNWG3tQ -->
<g id="edge41" class="edge">
<title>_KV8rUkrNEfGV4fLbNWG3tQ-&gt;_KV8EQUrNEfGV4fLbNWG3tQ</title>
<path fill="none" stroke="black" d="M1561.84,-1625.78C1588.43,-1685.74 1692.84,-1896 1849.14,-1896 1849.14,-1896 1849.14,-1896 2591.14,-1896 2845.33,-1896 2976.39,-1535.8 3018.09,-1394.2"/>
<polygon fill="black" stroke="black" points="3021.44,-1395.22 3020.86,-1384.64 3014.71,-1393.27 3021.44,-1395.22"/>
</g>
<!-- _KV8EQkrNEfGV4fLbNWG3tQ&#45;&gt;_KWHqd0rNEfGV4fLbNWG3tQ -->
<g id="edge59" class="edge">
<title>_KV8EQkrNEfGV4fLbNWG3tQ-&gt;_KWHqd0rNEfGV4fLbNWG3tQ</title>
<path fill="none" stroke="black" d="M3189.8,-1432C3204.3,-1432 3240.03,-1432 3271.67,-1432"/>
<polygon fill="black" stroke="black" points="3271.58,-1435.5 3281.58,-1432 3271.58,-1428.5 3271.58,-1435.5"/>
</g>
<!-- _KWEnI0rNEfGV4fLbNWG3tQ&#45;&gt;_KV8rVUrNEfGV4fLbNWG3tQ -->
<g id="edge49" class="edge">
<title>_KWEnI0rNEfGV4fLbNWG3tQ-&gt;_KV8rVUrNEfGV4fLbNWG3tQ</title>
<path fill="none" stroke="black" d="M4077.8,-1620C4092.3,-1620 4128.03,-1620 4159.67,-1620"/>
<polygon fill="black" stroke="black" points="4159.58,-1623.5 4169.58,-1620 4159.58,-1616.5 4159.58,-1623.5"/>
</g>
<!-- _KWHqgkrNEfGV4fLbNWG3tQ&#45;&gt;_KV8rWErNEfGV4fLbNWG3tQ -->
<g id="edge13" class="edge">
<title>_KWHqgkrNEfGV4fLbNWG3tQ-&gt;_KV8rWErNEfGV4fLbNWG3tQ</title>
<path fill="none" stroke="black" d="M1413.8,-1036.72C1429.69,-1026.48 1471.04,-999.86 1504.59,-978.26"/>
<polygon fill="black" stroke="black" points="1506.48,-981.2 1513,-972.85 1502.69,-975.32 1506.48,-981.2"/>
</g>
<!-- _KWHqeErNEfGV4fLbNWG3tQ&#45;&gt;_KV8ERErNEfGV4fLbNWG3tQ -->
<g id="edge35" class="edge">
<title>_KWHqeErNEfGV4fLbNWG3tQ-&gt;_KV8ERErNEfGV4fLbNWG3tQ</title>
<path fill="none" stroke="black" d="M3485.8,-1526C3500.3,-1526 3536.03,-1526 3567.67,-1526"/>
<polygon fill="black" stroke="black" points="3567.58,-1529.5 3577.58,-1526 3567.58,-1522.5 3567.58,-1529.5"/>
</g>
<!-- _KWEAE0rNEfGV4fLbNWG3tQ&#45;&gt;_KWA8wUrNEfGV4fLbNWG3tQ -->
<g id="edge42" class="edge">
<title>_KWEAE0rNEfGV4fLbNWG3tQ-&gt;_KWA8wUrNEfGV4fLbNWG3tQ</title>
<path fill="none" stroke="black" d="M821.8,-1323C836.3,-1323 872.03,-1323 903.67,-1323"/>
<polygon fill="black" stroke="black" points="903.58,-1326.5 913.58,-1323 903.58,-1319.5 903.58,-1326.5"/>
</g>
<!-- _KWBj30rNEfGV4fLbNWG3tQ&#45;&gt;_KV62IUrNEfGV4fLbNWG3tQ -->
<g id="edge61" class="edge">
<title>_KWBj30rNEfGV4fLbNWG3tQ-&gt;_KV62IUrNEfGV4fLbNWG3tQ</title>
<path fill="none" stroke="black" d="M4077.8,-1432C4092.3,-1432 4128.03,-1432 4159.67,-1432"/>
<polygon fill="black" stroke="black" points="4159.58,-1435.5 4169.58,-1432 4159.58,-1428.5 4159.58,-1435.5"/>
</g>
<!-- _KWBj00rNEfGV4fLbNWG3tQ&#45;&gt;_KV5A8krNEfGV4fLbNWG3tQ -->
<g id="edge18" class="edge">
<title>_KWBj00rNEfGV4fLbNWG3tQ-&gt;_KV5A8krNEfGV4fLbNWG3tQ</title>
<path fill="none" stroke="black" d="M2597.8,-757C2612.3,-757 2648.03,-757 2679.67,-757"/>
<polygon fill="black" stroke="black" points="2679.58,-760.5 2689.58,-757 2679.58,-753.5 2679.58,-760.5"/>
</g>
<!-- _KV5A80rNEfGV4fLbNWG3tQ&#45;&gt;_KWHDYUrNEfGV4fLbNWG3tQ -->
<g id="edge4" class="edge">
<title>_KV5A80rNEfGV4fLbNWG3tQ-&gt;_KWHDYUrNEfGV4fLbNWG3tQ</title>
<path fill="none" stroke="black" d="M2878.73,-1326C2847.31,-1326 2706.5,-1326 2591.14,-1326 2145.14,-1326 2145.14,-1326 2145.14,-1326 2038.2,-1326 1939.37,-1236.23 1888.03,-1180.1"/>
<polygon fill="black" stroke="black" points="1890.8,-1177.95 1881.51,-1172.86 1885.6,-1182.64 1890.8,-1177.95"/>
</g>
<!-- _KV5A80rNEfGV4fLbNWG3tQ&#45;&gt;_KV8EQUrNEfGV4fLbNWG3tQ -->
<g id="edge34" class="edge">
<title>_KV5A80rNEfGV4fLbNWG3tQ-&gt;_KV8EQUrNEfGV4fLbNWG3tQ</title>
<path fill="none" stroke="black" d="M2893.8,-1326.55C2908.3,-1327.74 2944.03,-1330.68 2975.67,-1333.28"/>
<polygon fill="black" stroke="black" points="2975.33,-1336.76 2985.58,-1334.09 2975.9,-1329.78 2975.33,-1336.76"/>
</g>
<!-- _KV8rWUrNEfGV4fLbNWG3tQ&#45;&gt;_KWHDYUrNEfGV4fLbNWG3tQ -->
<g id="edge8" class="edge">
<title>_KV8rWUrNEfGV4fLbNWG3tQ-&gt;_KWHDYUrNEfGV4fLbNWG3tQ</title>
<path fill="none" stroke="black" d="M1709.8,-955.61C1727.85,-978.99 1778.78,-1044.91 1813.79,-1090.24"/>
<polygon fill="black" stroke="black" points="1810.98,-1092.32 1819.86,-1098.09 1816.52,-1088.04 1810.98,-1092.32"/>
</g>
<!-- _KV8rWUrNEfGV4fLbNWG3tQ&#45;&gt;_KV0vhErNEfGV4fLbNWG3tQ -->
<g id="edge5" class="edge">
<title>_KV8rWUrNEfGV4fLbNWG3tQ-&gt;_KV0vhErNEfGV4fLbNWG3tQ</title>
<path fill="none" stroke="black" d="M1709.82,-922.63C1724.51,-870.02 1761.64,-742.23 1803.34,-639 1809.03,-624.92 1815.9,-610 1822.56,-596.29"/>
<polygon fill="black" stroke="black" points="1825.64,-597.96 1826.92,-587.44 1819.36,-594.86 1825.64,-597.96"/>
</g>
<!-- _KV0viErNEfGV4fLbNWG3tQ&#45;&gt;_KV8rVErNEfGV4fLbNWG3tQ -->
<g id="edge58" class="edge">
<title>_KV0viErNEfGV4fLbNWG3tQ-&gt;_KV8rVErNEfGV4fLbNWG3tQ</title>
<path fill="none" stroke="black" d="M2301.8,-745C2316.3,-745 2352.03,-745 2383.67,-745"/>
<polygon fill="black" stroke="black" points="2383.58,-748.5 2393.58,-745 2383.58,-741.5 2383.58,-748.5"/>
</g>
<!-- _KV8rVkrNEfGV4fLbNWG3tQ&#45;&gt;_KWHDYUrNEfGV4fLbNWG3tQ -->
<g id="edge10" class="edge">
<title>_KV8rVkrNEfGV4fLbNWG3tQ-&gt;_KWHDYUrNEfGV4fLbNWG3tQ</title>
<path fill="none" stroke="black" d="M4358.47,-1634.84C4331.59,-1692.17 4225.16,-1896 4071.14,-1896 3033.14,-1896 3033.14,-1896 3033.14,-1896 2819.32,-1896 2804.97,-1706 2591.14,-1706 2145.14,-1706 2145.14,-1706 2145.14,-1706 1916.67,-1706 1865.57,-1339.8 1854.29,-1194.44"/>
<polygon fill="black" stroke="black" points="1857.79,-1194.36 1853.57,-1184.64 1850.81,-1194.87 1857.79,-1194.36"/>
</g>
<!-- _KV8rVkrNEfGV4fLbNWG3tQ&#45;&gt;_KWHqcErNEfGV4fLbNWG3tQ -->
<g id="edge27" class="edge">
<title>_KV8rVkrNEfGV4fLbNWG3tQ-&gt;_KWHqcErNEfGV4fLbNWG3tQ</title>
<path fill="none" stroke="black" d="M4373.8,-1584.96C4396.88,-1463.4 4473.64,-1059.06 4502.26,-908.31"/>
<polygon fill="black" stroke="black" points="4505.69,-909.02 4504.12,-898.54 4498.81,-907.71 4505.69,-909.02"/>
</g>
<!-- _KV5A9krNEfGV4fLbNWG3tQ&#45;&gt;_KV0vg0rNEfGV4fLbNWG3tQ -->
<g id="edge43" class="edge">
<title>_KV5A9krNEfGV4fLbNWG3tQ-&gt;_KV0vg0rNEfGV4fLbNWG3tQ</title>
<path fill="none" stroke="black" d="M525.8,-1135C540.3,-1135 576.03,-1135 607.67,-1135"/>
<polygon fill="black" stroke="black" points="607.58,-1138.5 617.58,-1135 607.58,-1131.5 607.58,-1138.5"/>
</g>
<!-- _KV0vgkrNEfGV4fLbNWG3tQ -->
<g id="node48" class="node">
<title>_KV0vgkrNEfGV4fLbNWG3tQ</title>
<polygon fill="none" stroke="black" points="1709.34,-555.8 1694.94,-555.8 1694.94,-462.2 1709.34,-462.2 1709.34,-555.8"/>
<text xml:space="preserve" text-anchor="middle" x="1672.01" y="-449.6" font-family="Times,serif" font-size="14.00">t=5.0</text>
<text xml:space="preserve" text-anchor="middle" x="1672.01" y="-432.8" font-family="Times,serif" font-size="14.00">oneServ</text>
</g>
<!-- _KV0vgkrNEfGV4fLbNWG3tQ&#45;&gt;_KWHqfErNEfGV4fLbNWG3tQ -->
<g id="edge46" class="edge">
<title>_KV0vgkrNEfGV4fLbNWG3tQ-&gt;_KWHqfErNEfGV4fLbNWG3tQ</title>
<path fill="none" stroke="black" d="M1709.8,-519.21C1728.53,-547.95 1782.64,-630.97 1817.66,-684.7"/>
<polygon fill="black" stroke="black" points="1814.53,-686.3 1822.92,-692.77 1820.39,-682.48 1814.53,-686.3"/>
</g>
<!-- _KV0vgkrNEfGV4fLbNWG3tQ&#45;&gt;_KWLU0ErNEfGV4fLbNWG3tQ -->
<g id="edge16" class="edge">
<title>_KV0vgkrNEfGV4fLbNWG3tQ-&gt;_KWLU0ErNEfGV4fLbNWG3tQ</title>
<path fill="none" stroke="black" d="M1709.39,-505.18C1725.01,-495.66 1767.16,-470.28 1803.34,-451 1904.31,-397.2 2025.15,-339.74 2092.72,-308.21"/>
<polygon fill="black" stroke="black" points="2094.14,-311.41 2101.73,-304.02 2091.19,-305.06 2094.14,-311.41"/>
</g>
<!-- _KV8ERUrNEfGV4fLbNWG3tQ&#45;&gt;_KV5A8UrNEfGV4fLbNWG3tQ -->
<g id="edge36" class="edge">
<title>_KV8ERUrNEfGV4fLbNWG3tQ-&gt;_KV5A8UrNEfGV4fLbNWG3tQ</title>
<path fill="none" stroke="black" d="M3781.8,-1526C3796.3,-1526 3832.03,-1526 3863.67,-1526"/>
<polygon fill="black" stroke="black" points="3863.58,-1529.5 3873.58,-1526 3863.58,-1522.5 3863.58,-1529.5"/>
</g>
</g>
</svg>